<?xml version="1.0" standalone="no"?>
<!DOCTYPE svg PUBLIC "-//W3C//DTD SVG 1.1//EN" "http://www.w3.org/Graphics/SVG/1.1/DTD/svg11.dtd" >
<svg>
<metadata>
Created by FontForge 20090914 at Sat Jan 31 11:27:58 2015
 By www-data
Copyright 1990-1998 Bitstream Inc.  All rights reserved.
</metadata>
<defs>
<font id="ZurichBT-ExtraBlack" horiz-adv-x="1024" >
  <font-face 
    font-family="Zurich XBlk BT"
    font-weight="400"
    font-stretch="normal"
    units-per-em="2048"
    panose-1="2 11 9 4 4 5 2 3 2 4"
    ascent="1556"
    descent="-492"
    x-height="1028"
    cap-height="1475"
    bbox="-342 -485 3006 1972"
    underline-thickness="313"
    underline-position="-98"
    unicode-range="U+0020-U+F002"
  />
<missing-glyph horiz-adv-x="1229" 
d="M102 -362v1806h1024v-1806h-1024zM217 -248h795v1577h-795v-1577z" />
    <glyph glyph-name=".notdef" horiz-adv-x="1229" 
d="M102 -362v1806h1024v-1806h-1024zM217 -248h795v1577h-795v-1577z" />
    <glyph glyph-name="space" unicode=" " horiz-adv-x="721" 
 />
    <glyph glyph-name="exclam" unicode="!" horiz-adv-x="711" 
d="M158 430l-86 1045h567l-86 -1045h-395zM121 0v336h475v-336h-475z" />
    <glyph glyph-name="quotedbl" unicode="&#x22;" horiz-adv-x="758" 
d="M690 1440v-563h-260v563h260zM326 1440v-563h-258v563h258z" />
    <glyph glyph-name="numbersign" unicode="#" horiz-adv-x="1575" 
d="M946 834h-239l-78 -213h239zM938 1470l-129 -366h227l129 366h289l-129 -366h256l-100 -270h-252l-76 -213h258l-100 -271h-254l-131 -366h-289l131 366h-227l-131 -366h-289l131 366h-258l100 271h254l74 213h-258l98 270h258l129 366h289z" />
    <glyph glyph-name="dollar" unicode="$" horiz-adv-x="1442" 
d="M97 467l499.002 -0.000976562v-14c0 -48 11 -84 33 -108s54.667 -36 98 -36c38 0 68.667 10.167 92 30.5s35 46.5 35 78.5c0 22.667 -4.5 42 -13.5 58s-22.167 28 -39.5 36c-26 12.667 -80 29.667 -162 51s-147.667 39.666 -197 54.999
c-115.333 37.333 -198.666 85.333 -249.999 144s-77 135 -77 229c0 112.667 36.833 205.5 110.5 278.5s180.167 122.167 319.5 147.5v199h286v-191c156 -13.333 273.167 -51.833 351.5 -115.5s117.5 -152.167 117.5 -265.5v-26h-460c-2.66699 40 -14 70.167 -34 90.5
s-48.333 30.5 -85 30.5c-34.667 0 -62.834 -8.5 -84.501 -25.5s-32.5 -38.5 -32.5 -64.5c0 -51.333 58 -90.666 174 -117.999c40.667 -9.33301 72.667 -17.333 96 -24c185.333 -49.333 310.666 -104.666 375.999 -165.999s98 -147.333 98 -258
c0 -133.333 -45.667 -241.5 -137 -324.5s-218 -130.5 -380 -142.5v-202h-286v202c-146.667 17.333 -258.5 60 -335.5 128s-115.5 158.667 -115.5 272c0 13.333 0.166992 23.5 0.5 30.5s1.16602 13.833 2.49902 20.5z" />
    <glyph glyph-name="percent" unicode="%" horiz-adv-x="2189" 
d="M1698 215c27.333 0 46.835 18.167 58.502 54.5s17.5 99.5 17.5 189.5c0 92.667 -5.83301 156 -17.5 190s-31.834 51 -60.501 51c-27.333 0 -46.833 -16.333 -58.5 -49s-17.5 -90 -17.5 -172c0 -106 5.66699 -176.5 17 -211.5s31.666 -52.5 60.999 -52.5zM2105 457
c0 -150 -36.499 -267.833 -109.499 -353.5s-172.833 -128.5 -299.5 -128.5s-226.334 42.667 -299.001 128s-109 203.333 -109 354s36.333 268.5 109 353.5s173 127.5 301 127.5c126.667 0 226.167 -42.667 298.5 -128s108.5 -203 108.5 -353zM580.003 0l792 1427h238
l-793 -1427h-237zM901.003 969c0 -150.667 -36.332 -269 -108.999 -355s-172 -129 -298 -129c-126.667 0 -226.334 43 -299.001 129s-109 204.333 -109 355s36.333 268.5 109 353.5s173 127.5 301 127.5c126 0 225 -42.5 297 -127.5s108 -202.833 108 -353.5zM496.004 723
c26.667 0 45.5 17.832 56.5 53.499s16.5 99.834 16.5 192.501c0 94.667 -5.5 158.5 -16.5 191.5s-30.5 49.5 -58.5 49.5s-48 -16.667 -60 -50s-18 -90.333 -18 -171c0 -104.667 5.83301 -175.167 17.5 -211.5s32.5 -54.5 62.5 -54.5z" />
    <glyph glyph-name="ampersand" unicode="&#x26;" horiz-adv-x="1636" 
d="M1446 0l-862.001 0.00292969c-105.333 0 -180.833 4.5 -226.5 13.5s-84.834 24.167 -117.501 45.5c-51.333 34 -90.833 79.333 -118.5 136s-41.5 120.667 -41.5 192c0 107.333 26.5 192.666 79.5 255.999s126.5 98.333 220.5 105c-78 23.333 -137.333 63.5 -178 120.5
s-61 129.167 -61 216.5c0 125.333 41.333 222.333 124 291s199 103 349 103h254v-363h-114c-35.333 0 -61.666 -7.83301 -78.999 -23.5s-26 -39.834 -26 -72.501c0 -34.667 8.83301 -60.834 26.5 -78.501s43.834 -26.5 78.501 -26.5h196v152h496v-152h190v-340h-190v-575z
M949.999 356.003l-0.000976562 218.999h-198c-41.333 0 -70.5 -8.66699 -87.5 -26s-25.5 -46.666 -25.5 -87.999c0 -36 8.33301 -62.5 25 -79.5s42.334 -25.5 77.001 -25.5h209z" />
    <glyph glyph-name="quotesingle" unicode="'" horiz-adv-x="393" 
d="M326 1440v-563h-258v563h258z" />
    <glyph glyph-name="parenleft" unicode="(" horiz-adv-x="797" 
d="M358 -297c-79.333 196.667 -137 365.834 -173 507.501s-54 270.167 -54 385.5c0 116.667 19.5 249.5 58.5 398.5s95.833 309.167 170.5 480.5h367c-58 -218 -98.833 -393.833 -122.5 -527.5s-35.5 -250.834 -35.5 -351.501c0 -100 10.333 -211.5 31 -334.5
s63 -309.167 127 -558.5h-369z" />
    <glyph glyph-name="parenright" unicode=")" horiz-adv-x="797" 
d="M455 1475c80 -198.667 137.833 -368.831 173.5 -510.498s53.5 -269.834 53.5 -384.501c0 -116 -19.333 -247.833 -58 -395.5s-95.667 -308.167 -171 -481.5h-369c57.333 216 98 391.333 122 526s36 252.334 36 353.001c0 101.333 -10.5 214.666 -31.5 339.999
s-62.5 309.666 -124.5 552.999h369z" />
    <glyph glyph-name="asterisk" unicode="*" horiz-adv-x="1139" 
d="M569 924l-73 -262l-254 147l190 192l-262 -67v293l262 -68l-190 193l254 145l73 -260l72 260l254 -145l-190 -193l262 68v-293l-262 67l190 -192l-254 -147z" />
    <glyph glyph-name="plus" unicode="+" horiz-adv-x="1706" 
d="M993 1221v-473h459v-273h-459v-475h-280v475h-459v273h459v473h280z" />
    <glyph glyph-name="comma" unicode="," horiz-adv-x="721" 
d="M27 -211l98 645h475l-180 -645h-393z" />
    <glyph glyph-name="hyphen" unicode="-" horiz-adv-x="827" 
d="M63 313v437h701v-437h-701z" />
    <glyph glyph-name="period" unicode="." horiz-adv-x="721" 
d="M125 0v434h475v-434h-475z" />
    <glyph glyph-name="slash" unicode="/" horiz-adv-x="606" 
d="M-164 -190l586 1665h283l-584 -1665h-285z" />
    <glyph glyph-name="zero" unicode="0" horiz-adv-x="1442" 
d="M721 340c45.333 0 77.5 26.833 96.5 80.5s28.5 151.167 28.5 292.5c0 142.667 -9.33301 240.334 -28 293.001s-51 79 -97 79c-46.667 0 -79.167 -25.333 -97.5 -76s-27.5 -149.334 -27.5 -296.001c0 -146 9.16699 -244.667 27.5 -296s50.833 -77 97.5 -77zM1380 713
c0 -230.667 -58.332 -411.334 -174.999 -542.001s-277.334 -196 -482.001 -196c-206 0 -367.833 65.333 -485.5 196s-176.5 311.334 -176.5 542.001s58.833 411.167 176.5 541.5s280.167 195.5 487.5 195.5c204.667 0 365 -65 481 -195s174 -310.667 174 -542z" />
    <glyph glyph-name="one" unicode="1" horiz-adv-x="1442" 
d="M575 0l0.00195312 920c-37.333 -33.333 -82.333 -62.833 -135 -88.5s-114.667 -48.834 -186 -69.501v416c83.333 24.667 161.166 57.834 233.499 99.501s139.166 91.5 200.499 149.5h432v-1427h-545z" />
    <glyph glyph-name="two" unicode="2" horiz-adv-x="1442" 
d="M84 0l-0.00195312 379.001c240 119.333 423.167 232 549.5 338s189.5 199.333 189.5 280c0 32.667 -10.5 59 -31.5 79s-48.5 30 -82.5 30c-43.333 0 -76 -13.167 -98 -39.5s-33 -65.166 -33 -116.499h-500c4 169.333 59.333 295.666 166 378.999s267 125 481 125
c198 0 353 -37.833 465 -113.5s168 -179.834 168 -312.501c0 -108 -44.167 -212.5 -132.5 -313.5s-238.166 -215.5 -449.499 -343.5c68.667 2.66699 133.334 4.66699 194.001 6s114 2 160 2h232v-379h-1278z" />
    <glyph glyph-name="three" unicode="3" horiz-adv-x="1442" 
d="M63 461l494 -1c3.33301 -46 15.5 -79.833 36.5 -101.5s51.833 -32.5 92.5 -32.5c45.333 0 80.5 12 105.5 36s37.5 57.667 37.5 101c0 46.667 -16.5 79.5 -49.5 98.5s-93.5 28.5 -181.5 28.5h-61v270h26c93.333 0 159 10.5 197 31.5s57 56.167 57 105.5
c0 41.333 -11 72.833 -33 94.5s-54 32.5 -96 32.5c-39.333 0 -69 -12.833 -89 -38.5s-31.333 -65.167 -34 -118.5h-473v14c0 161.333 50.167 279.833 150.5 355.5s258.5 113.5 474.5 113.5c208 0 365.167 -31.5 471.5 -94.5s159.5 -156.5 159.5 -280.5
c0 -79.333 -25.167 -142.5 -75.5 -189.5s-132.5 -84.833 -246.5 -113.5c120 -24.667 208.333 -66 265 -124s85 -136 85 -234c0 -63.333 -17.833 -125.5 -53.5 -186.5s-83.834 -111.5 -144.501 -151.5c-52 -34 -116.667 -59.333 -194 -76s-167.666 -25 -270.999 -25
c-216 0 -378.333 39.333 -487 118s-163 195.667 -163 351v17z" />
    <glyph glyph-name="four" unicode="4" horiz-adv-x="1442" 
d="M442 616h271v471zM35 233v431l459 763h741v-811h170v-383h-170v-233h-530v233h-670z" />
    <glyph glyph-name="five" unicode="5" horiz-adv-x="1442" 
d="M117 586l26.001 840.999h1119v-348h-664l-14 -209c39.333 36.667 82.333 63.667 129 81s99 26 157 26c142.667 0 256.167 -40.5 340.5 -121.5s126.5 -190.167 126.5 -327.5c0 -178 -54.833 -314.667 -164.5 -410s-267.834 -143 -474.501 -143
c-196 0 -343.667 36.833 -443 110.5s-149.333 183.167 -150 328.5h501c0 -36 7.16699 -62.833 21.5 -80.5s35.833 -26.5 64.5 -26.5c37.333 0 64.833 15.833 82.5 47.5s26.5 80.834 26.5 147.501c0 72 -8 122 -24 150s-43.667 42 -83 42c-27.333 0 -49.833 -9.5 -67.5 -28.5
s-28.5 -45.5 -32.5 -79.5h-477z" />
    <glyph glyph-name="six" unicode="6" horiz-adv-x="1442" 
d="M633 481c0 -56.667 8.33105 -98.834 24.998 -126.501s42.334 -41.5 77.001 -41.5s61.834 15 81.501 45s29.5 71.667 29.5 125c0 54.667 -8.66699 94.334 -26 119.001s-45 37 -83 37c-34 0 -59.833 -13.333 -77.5 -40s-26.5 -66 -26.5 -118zM599.998 817
c36.667 36.667 78.5 64 125.5 82s100.833 27 161.5 27c134.667 0 242 -39 322 -117s120 -182.333 120 -313c0 -160 -52.5 -287.167 -157.5 -381.5s-247.167 -141.5 -426.5 -141.5c-210.667 0 -369 59.833 -475 179.5s-159 298.167 -159 535.5
c0 250.667 56.167 441 168.5 571s276.5 195 492.5 195c154.667 0 277 -36.333 367 -109s135 -170.667 135 -294v-17h-432c-4 34 -14.5 60 -31.5 78s-39.5 27 -67.5 27c-51.333 0 -88 -24.333 -110 -73s-33 -131.667 -33 -249z" />
    <glyph glyph-name="seven" unicode="7" horiz-adv-x="1442" 
d="M109 1034v393h1222v-331l-557 -1096h-581l522 1034h-606z" />
    <glyph glyph-name="eight" unicode="8" horiz-adv-x="1442" 
d="M717 594c-40.667 0 -73 -12.668 -97 -38.001s-36 -59.666 -36 -102.999c0 -49.333 11.333 -87.333 34 -114s55 -40 97 -40s76.333 14 103 42s40 64 40 108c0 42.667 -13 77.5 -39 104.5s-60 40.5 -102 40.5zM717 1124c-33.333 0 -60.832 -12.001 -82.499 -36.001
s-32.5 -54.333 -32.5 -91c0 -44 10.167 -77.833 30.5 -101.5s49.166 -35.5 86.499 -35.5c36 0 64.833 13 86.5 39s32.5 61 32.5 105c0 38.667 -10.5 68.334 -31.5 89.001s-50.833 31 -89.5 31zM362.001 771.998c-93.333 34 -161.002 74.667 -203.002 122s-63 107 -63 179
c0 119.333 54 212 162 278s260.333 99 457 99c206.667 0 363.834 -31.667 471.501 -95s161.5 -156 161.5 -278c0 -72.667 -21.333 -133.667 -64 -183s-109.667 -90 -201 -122c102.667 -37.333 177.167 -84.5 223.5 -141.5s69.5 -129.167 69.5 -216.5
c0 -139.333 -57.667 -247.333 -173 -324s-278.666 -115 -489.999 -115c-206.667 0 -366.167 37.167 -478.5 111.5s-168.5 178.5 -168.5 312.5c0 92.667 23.833 169 71.5 229s122.5 108 224.5 144z" />
    <glyph glyph-name="nine" unicode="9" horiz-adv-x="1442" 
d="M807 944c0 56 -8.16699 98.001 -24.5 126.001s-40.833 42 -73.5 42c-37.333 0 -65.833 -15.333 -85.5 -46s-29.5 -75.334 -29.5 -134.001c0 -48.667 9 -85.5 27 -110.5s44.333 -37.5 79 -37.5c36 0 62.833 13.333 80.5 40s26.5 66.667 26.5 120zM842 608.001
c-36.667 -36.667 -78.833 -63.832 -126.5 -81.499s-101.834 -26.5 -162.501 -26.5c-136.667 0 -244.5 39.167 -323.5 117.5s-118.5 185.833 -118.5 322.5c0 154 53.333 277.833 160 371.5s248.334 140.5 425.001 140.5c210.667 0 368.834 -59.833 474.501 -179.5
s158.5 -298.834 158.5 -537.501c0 -250.667 -55.833 -440.667 -167.5 -570s-275.5 -194 -491.5 -194c-154.667 0 -277 36.333 -367 109s-135 171 -135 295v16h432c4 -34.667 14.167 -60.667 30.5 -78s38.166 -26 65.499 -26c52 0 89.333 24.5 112 73.5s34 131.5 34 247.5z
" />
    <glyph glyph-name="colon" unicode=":" horiz-adv-x="721" 
d="M125 618v435h475v-435h-475zM125 0v434h475v-434h-475z" />
    <glyph glyph-name="semicolon" unicode=";" horiz-adv-x="721" 
d="M125 618v435h475v-435h-475zM27 -211l98 645h475l-180 -645h-393z" />
    <glyph glyph-name="less" unicode="&#x3c;" horiz-adv-x="1706" 
d="M1442 938l-801 -328l801 -327v-299l-1178 487v281l1178 487v-301z" />
    <glyph glyph-name="equal" unicode="=" horiz-adv-x="1706" 
d="M1452 512v-272h-1198v272h1198zM1452 983v-272h-1198v272h1198z" />
    <glyph glyph-name="greater" unicode="&#x3e;" horiz-adv-x="1706" 
d="M1442 752v-281l-1178 -487v299l801 327l-801 328v301z" />
    <glyph glyph-name="question" unicode="?" horiz-adv-x="1223" 
d="M244 0v342h481v-342h-481zM244 438l0.000976562 143.999c0 27.333 8 56.833 24 88.5s38.667 61.5 68 89.5l70 67c82.667 77.333 124 137 124 179c0 29.333 -11.167 52 -33.5 68s-54.166 24 -95.499 24c-30.667 0 -68.834 -4.5 -114.501 -13.5s-99.5 -22.5 -161.5 -40.5
v377c73.333 26.667 142.833 46.334 208.5 59.001s130.5 19 194.5 19c182.667 0 324.667 -36.333 426 -109s152 -174.334 152 -305.001c0 -60.667 -12.833 -116.5 -38.5 -167.5s-64.834 -98.167 -117.501 -141.5l-64 -53c-84 -67.333 -133.667 -118.666 -149 -153.999
c-4 -8.66699 -7 -21.5 -9 -38.5s-3 -37.5 -3 -61.5v-31h-481z" />
    <glyph glyph-name="at" unicode="@" horiz-adv-x="2048" 
d="M1241 911l49 82.002h242l-156 -627c-1.33301 -8 -2.33301 -14.167 -3 -18.5s-1 -8.16602 -1 -11.499c0 -16 4.16699 -28.167 12.5 -36.5s19.833 -12.5 34.5 -12.5c85.333 0 162.333 47.333 231 142s103 205 103 331c0 157.333 -58.167 284.333 -174.5 381
s-270.5 145 -462.5 145c-94.667 0 -183.334 -11.833 -266.001 -35.5s-157.667 -58.834 -225 -105.501c-102.667 -72 -182 -161.667 -238 -269s-84 -224 -84 -350c0 -196 66.5 -352.167 199.5 -468.5s311.5 -174.5 535.5 -174.5c106.667 0 209.167 15.667 307.5 47
s191.166 78 278.499 140l115 -160c-109.333 -81.333 -223.333 -141.666 -342 -180.999s-245.667 -59 -381 -59c-125.333 0 -243.666 18.167 -354.999 54.5s-209.333 88.5 -294 156.5c-99.333 79.333 -173.666 172.333 -222.999 279s-74 226.667 -74 360
c0 117.333 18.5 228.166 55.5 332.499s91.5 199.166 163.5 284.499c99.333 118 219.833 208.5 361.5 271.5s295.5 94.5 461.5 94.5c257.333 0 466 -68.667 626 -206s240 -315 240 -533c0 -114 -22.667 -218.833 -68 -314.5s-110.666 -176.5 -195.999 -242.5
c-46.667 -36.667 -97.834 -64.667 -153.501 -84s-113.834 -29 -174.501 -29c-72.667 0 -128.167 12.667 -166.5 38s-60.5 63.666 -66.5 114.999c-39.333 -52.667 -81.833 -91 -127.5 -115s-99.5 -36 -161.5 -36c-114 0 -199.833 29.333 -257.5 88s-86.5 146 -86.5 262
c0 164.667 47.833 301.834 143.5 411.501s214.5 164.5 356.5 164.5c49.333 0 92.833 -9.33301 130.5 -28s67.834 -46.334 90.501 -83.001zM1126 494.002l47 195c-4.66699 44.667 -18.667 79.5 -42 104.5s-53.666 37.5 -90.999 37.5c-63.333 0 -119 -38.833 -167 -116.5
s-72 -169.167 -72 -274.5c0 -48 10.167 -85.167 30.5 -111.5s49.166 -39.5 86.499 -39.5c48 0 91 18.5 129 55.5s64.333 86.833 79 149.5z" />
    <glyph glyph-name="A" unicode="A" horiz-adv-x="1702" 
d="M963 594l-127 582l-136 -582h263zM0 0l487 1475h750l465 -1475h-608l-52 233h-428l-55 -233h-559z" />
    <glyph glyph-name="B" unicode="B" horiz-adv-x="1579" 
d="M680 883l74 0.000976562c56.667 0 100.167 11.667 130.5 35s45.5 56.666 45.5 99.999c0 45.333 -15.167 79.833 -45.5 103.5s-74.5 35.5 -132.5 35.5h-72v-274zM680 602.001v-290.999h92c60.667 0 105.834 12.5 135.501 37.5s44.5 62.5 44.5 112.5
c0 47.333 -14.833 82.666 -44.5 105.999s-74.834 35 -135.501 35h-92zM141 0.00195312v1475h543c157.333 0 280.5 -4.66699 369.5 -14s159.167 -24.666 210.5 -45.999c65.333 -27.333 115.666 -69.333 150.999 -126s53 -124 53 -202
c0 -82.667 -22.667 -150.334 -68 -203.001s-114.666 -91.334 -207.999 -116.001c107.333 -20.667 186.666 -59.167 237.999 -115.5s77 -133.166 77 -230.499c0 -140 -50.167 -245.333 -150.5 -316s-250.166 -106 -449.499 -106h-766z" />
    <glyph glyph-name="C" unicode="C" horiz-adv-x="1554" 
d="M1485 540c-2 -189.333 -59.499 -330.499 -172.499 -423.499s-284.167 -139.5 -513.5 -139.5c-233.333 0 -413.833 66.167 -541.5 198.5s-191.5 318.833 -191.5 559.5c0 244 64.667 432.333 194 565s313.666 199 552.999 199c218 0 381.333 -48.167 490 -144.5
s163.667 -241.833 165 -436.5h-516v18c0 64 -10.833 110 -32.5 138s-57.167 42 -106.5 42c-58.667 0 -100 -26.667 -124 -80s-36 -152.333 -36 -297c0 -146.667 11.833 -246.834 35.5 -300.501s64.5 -80.5 122.5 -80.5c46 0 79.833 14.333 101.5 43s34.167 75 37.5 139h535z
" />
    <glyph glyph-name="D" unicode="D" horiz-adv-x="1663" 
d="M141 -2v1477h660c272 0 473.833 -60 605.5 -180s197.5 -304 197.5 -552c0 -246.667 -67 -432.5 -201 -557.5s-333.333 -187.5 -598 -187.5h-664zM711 342c4 0 10 -0.332031 18 -0.999023s13.333 -1 16 -1c96.667 0 165.667 31.167 207 93.5s62 167.166 62 314.499
c0 142 -19.333 243 -58 303s-102.667 90 -192 90c-14 0 -24.667 -0.166992 -32 -0.5s-14.333 -0.833008 -21 -1.5v-797z" />
    <glyph glyph-name="E" unicode="E" horiz-adv-x="1374" 
d="M141 0v1475h1104v-379h-547v-160h508v-379h-508v-174h566v-383h-1123z" />
    <glyph glyph-name="F" unicode="F" horiz-adv-x="1323" 
d="M1206 537h-508v-539h-557v1475h1121v-386h-564v-172h508v-378z" />
    <glyph glyph-name="G" unicode="G" horiz-adv-x="1655" 
d="M1575 78c-133.333 -34 -262.666 -59.666 -387.999 -76.999s-244.666 -26 -357.999 -26c-235.333 0 -421.333 69 -558 207s-205 325.667 -205 563c0 238 73 422.833 219 554.5s352 197.5 618 197.5c206 0 364.667 -41.833 476 -125.5s167 -202.834 167 -357.501v-8h-522
c-4 38 -19 67.5 -45 88.5s-60 31.5 -102 31.5c-80 0 -137 -31.667 -171 -95s-51 -171.333 -51 -324c0 -138.667 16.167 -236.167 48.5 -292.5s86.5 -84.5 162.5 -84.5c27.333 0 54.166 3.83301 80.499 11.5s52.166 19.5 77.499 35.5v168h-195v289h746v-756z" />
    <glyph glyph-name="H" unicode="H" horiz-adv-x="1655" 
d="M141 0v1475h553v-498h264v498h553v-1475h-553v551h-264v-551h-553z" />
    <glyph glyph-name="I" unicode="I" horiz-adv-x="872" 
d="M721 1475v-1475h-569v1475h569z" />
    <glyph glyph-name="J" unicode="J" horiz-adv-x="1432" 
d="M29 498l486.999 0.000976562c0 -48.667 7.33301 -84.834 22 -108.501s37.334 -35.5 68.001 -35.5c40 0 67.5 19.667 82.5 59s22.5 127.666 22.5 264.999v797h567v-854c0 -92 -2.5 -161 -7.5 -207s-13.5 -89 -25.5 -129c-27.333 -98 -91.5 -174.167 -192.5 -228.5
s-229.167 -81.5 -384.5 -81.5c-206.667 0 -365.167 41.167 -475.5 123.5s-165.5 200.5 -165.5 354.5c0 12 0.166992 21.333 0.5 28s0.833008 12.334 1.5 17.001z" />
    <glyph glyph-name="K" unicode="K" horiz-adv-x="1579" 
d="M141 0v1475h555v-625l312 625h585l-389 -682l447 -793h-607l-348 666v-666h-555z" />
    <glyph glyph-name="L" unicode="L" horiz-adv-x="1290" 
d="M1247 391v-391h-1106v1473h570v-1082h536z" />
    <glyph glyph-name="M" unicode="M" horiz-adv-x="2189" 
d="M141 0v1475h809l162 -873l168 873h772v-1475h-477l6 1055l-229 -1055h-512l-226 1055l2 -1055h-475z" />
    <glyph glyph-name="N" unicode="N" horiz-adv-x="1753" 
d="M606 907v-907h-465v1475h688l318 -883v883h465v-1475h-688z" />
    <glyph glyph-name="O" unicode="O" horiz-adv-x="1630" 
d="M799 -23c-233.333 0 -413.833 66.166 -541.5 198.499s-191.5 318.833 -191.5 559.5c0 244 65.167 432.333 195.5 565s315.5 199 555.5 199c238.667 0 422.667 -66.167 552 -198.5s194 -320.166 194 -563.499c0 -246.667 -65.167 -435 -195.5 -565
s-319.833 -195 -568.5 -195zM815 1116c-59.333 0 -101.166 -27.167 -125.499 -81.5s-36.5 -155.5 -36.5 -303.5c0 -138.667 12.167 -235.5 36.5 -290.5s65.5 -82.5 123.5 -82.5c59.333 0 101.166 29 125.499 87s36.5 162.333 36.5 313c0 136 -12 229.667 -36 281
s-65.333 77 -124 77z" />
    <glyph glyph-name="P" unicode="P" horiz-adv-x="1526" 
d="M696 1145v-307c5.33301 -0.666992 11.333 -1.16699 18 -1.5s15.667 -0.5 27 -0.5c60 0 105.167 13.5 135.5 40.5s45.5 67.167 45.5 120.5c0 50.667 -15.667 88 -47 112s-80 36 -146 36h-33zM141 0v1475h717c210 0 366.333 -39.667 469 -119s154 -199.666 154 -360.999
c0 -162.667 -51.167 -285.834 -153.5 -369.501s-252.5 -125.5 -450.5 -125.5h-181v-500h-555z" />
    <glyph glyph-name="Q" unicode="Q" horiz-adv-x="1698" 
d="M813 1116c-59.333 0 -100.832 -26.833 -124.499 -80.5s-35.5 -155.167 -35.5 -304.5c0 -140 12 -237.167 36 -291.5s64.667 -81.5 122 -81.5c59.333 0 101.166 29 125.499 87s36.5 162.333 36.5 313c0 136 -12 229.667 -36 281s-65.333 77 -124 77zM1458 326
c36.667 11.333 73.333 19.834 110 25.501s73 8.5 109 8.5v-360h-346c-18.667 0 -76.167 -4.16699 -172.5 -12.5s-182.833 -12.5 -259.5 -12.5c-124 0 -227.833 8.66699 -311.5 26s-156.5 45 -218.5 83c-98 58 -173 143.167 -225 255.5s-78 244.166 -78 395.499
c0 244.667 64.833 433.167 194.5 565.5s314.5 198.5 554.5 198.5c243.333 0 428.833 -67.667 556.5 -203s191.5 -332.333 191.5 -591c0 -82 -8.5 -153.833 -25.5 -215.5s-43.5 -116.167 -79.5 -163.5z" />
    <glyph glyph-name="R" unicode="R" horiz-adv-x="1575" 
d="M697 866c4.66699 -0.666992 9.83398 -1.16699 15.501 -1.5s13.834 -0.5 24.501 -0.5c65.333 0 115.5 13.167 150.5 39.5s52.5 63.833 52.5 112.5c0 45.333 -14.333 78.5 -43 99.5s-74.334 31.5 -137.001 31.5c-16 0 -28.333 -0.166992 -37 -0.5
s-17.334 -0.833008 -26.001 -1.5v-279zM141 0v1475h754c221.333 0 376 -28.5 464 -85.5s132 -153.5 132 -289.5c0 -88.667 -24.333 -161.834 -73 -219.501s-121.334 -99.167 -218.001 -124.5c90 -14.667 154.167 -44.667 192.5 -90s65.166 -127.333 80.499 -246l20 -160
c2.66699 -26.667 7.66699 -59.5 15 -98.5s18.666 -92.833 33.999 -161.5h-563c-12.667 49.333 -22.167 89.333 -28.5 120s-11.166 59 -14.499 85l-14 108c-14 97.333 -32.667 159 -56 185s-62.666 39 -117.999 39c-13.333 0 -23.666 -0.166992 -30.999 -0.5
s-14.333 -1.16602 -21 -2.49902v-534h-555z" />
    <glyph glyph-name="S" unicode="S" horiz-adv-x="1493" 
d="M72 473l529.999 -0.000976562v-12c0 -50 11.5 -87.167 34.5 -111.5s58.5 -36.5 106.5 -36.5c42 0 74.833 9.5 98.5 28.5s35.5 45.167 35.5 78.5c0 24.667 -4.5 45.667 -13.5 63s-22.167 30.333 -39.5 39c-28.667 14 -87 32.333 -175 55s-157.667 42 -209 58
c-124 39.333 -214.333 91 -271 155s-85 145.333 -85 244c0 146.667 58.833 260.5 176.5 341.5s282.834 121.5 495.501 121.5c194 0 342.167 -34.833 444.5 -104.5s153.5 -169.834 153.5 -300.501v-31h-489c-4 44.667 -16.5 77.667 -37.5 99s-51.833 32 -92.5 32
c-35.333 0 -63.666 -9 -84.999 -27s-32 -41.667 -32 -71c0 -54 59.667 -95.333 179 -124c43.333 -10 78 -18.667 104 -26c199.333 -53.333 334.166 -113.166 404.499 -179.499s105.5 -158.166 105.5 -275.499c0 -158 -60.833 -283.167 -182.5 -375.5
s-287.5 -138.5 -497.5 -138.5c-212.667 0 -376 38.5 -490 115.5s-171 186.833 -171 329.5c0 14 0.166992 24.833 0.5 32.5s0.833008 14.5 1.5 20.5z" />
    <glyph glyph-name="T" unicode="T" horiz-adv-x="1305" 
d="M1292 1475v-394h-356v-1081h-569v1081h-357v394h1282z" />
    <glyph glyph-name="U" unicode="U" horiz-adv-x="1636" 
d="M133 1475l552.999 0.00195312v-912c0 -62.667 11.167 -110.334 33.5 -143.001s54.833 -49 97.5 -49c41.333 0 73.5 17 96.5 51s34.5 81 34.5 141v912h555v-889c0 -208 -55.667 -361.5 -167 -460.5s-284.333 -148.5 -519 -148.5c-135.333 0 -247.166 14.333 -335.499 43
s-161.5 74 -219.5 136c-46 49.333 -79 104.166 -99 164.499s-30 148.833 -30 265.5v889z" />
    <glyph glyph-name="V" unicode="V" horiz-adv-x="1546" 
d="M1147 -2h-750l-411 1477h589l211 -1147l222 1147h551z" />
    <glyph glyph-name="W" unicode="W" horiz-adv-x="2138" 
d="M952 -2h-630l-306 1477h506l131 -910l133 910h592l133 -934l134 934h485l-301 -1477h-621l-129 956z" />
    <glyph glyph-name="X" unicode="X" horiz-adv-x="1536" 
d="M-4 1475h592l198 -408l195 408h567l-438 -701l463 -774h-606l-213 446l-244 -446h-563l483 750z" />
    <glyph glyph-name="Y" unicode="Y" horiz-adv-x="1427" 
d="M436 510l-493 965h581l219 -598l197 598h543l-479 -965v-510h-568v510z" />
    <glyph glyph-name="Z" unicode="Z" horiz-adv-x="1477" 
d="M84 0v352l618 742h-593v381h1249v-355l-606 -735h626v-385h-1294z" />
    <glyph glyph-name="bracketleft" unicode="[" horiz-adv-x="944" 
d="M141 -303v1778h736v-326h-316v-1120h316v-332h-736z" />
    <glyph glyph-name="backslash" unicode="\" horiz-adv-x="606" 
d="M770 -190h-285l-583 1665h284z" />
    <glyph glyph-name="bracketright" unicode="]" horiz-adv-x="944" 
d="M836 1475v-1778h-736v326h316v1120h-316v332h736z" />
    <glyph glyph-name="asciicircum" unicode="^" horiz-adv-x="2048" 
d="M1192 1462l442 -565h-303l-307 309l-309 -309h-303l442 565h338z" />
    <glyph glyph-name="underscore" unicode="_" 
d="M1024 -201v-282h-1024v282h1024z" />
    <glyph glyph-name="grave" unicode="`" 
d="M207 1534h287l192 -371h-154z" />
    <glyph glyph-name="a" unicode="a" horiz-adv-x="1251" 
d="M113 731c11.333 104.667 60.167 184.499 146.5 239.499s205.833 82.5 358.5 82.5c92 0 173.333 -8.5 244 -25.5s127.334 -41.5 170.001 -73.5c42 -31.333 71.667 -71.666 89 -120.999s26 -124.333 26 -225v-608h-432l-13 102
c-34.667 -42.667 -77.334 -74.5 -128.001 -95.5s-111.667 -31.5 -183 -31.5c-100 0 -179.167 28.833 -237.5 86.5s-87.5 136.167 -87.5 235.5c0 130 46.833 222.833 140.5 278.5s252.167 83.5 475.5 83.5h14v64c0 37.333 -6.83301 64 -20.5 80s-36.167 24 -67.5 24
c-32 0 -55.833 -7.66699 -71.5 -23s-24.5 -39.333 -26.5 -72zM696.001 456.999l-63 -0.000976562c-49.333 0 -87 -10.5 -113 -31.5s-39 -50.833 -39 -89.5c0 -33.333 9.5 -59.833 28.5 -79.5s44.5 -29.5 76.5 -29.5c37.333 0 65 12.333 83 37s27 62.334 27 113.001v80z" />
    <glyph glyph-name="b" unicode="b" horiz-adv-x="1384" 
d="M813 508c0 76.667 -8.16895 133 -24.502 169s-42.166 54 -77.499 54s-61.333 -18 -78 -54s-25 -92.333 -25 -169s8.5 -133.667 25.5 -171s42.833 -56 77.5 -56s60.334 18.5 77.001 55.5s25 94.167 25 171.5zM116.998 1475h470.998v-590c36.667 56 81.834 98 135.501 126
s116.167 42 187.5 42c128.667 0 228.5 -46.667 299.5 -140s106.5 -225 106.5 -395c0 -175.333 -37.667 -309.666 -113 -402.999s-183.666 -140 -324.999 -140c-68.667 0 -126.667 13.667 -174 41s-86.333 69.666 -117 126.999v-143h-479c1.33301 28.667 3 58.5 5 89.5
s3 48.167 3 51.5v1334z" />
    <glyph glyph-name="c" unicode="c" horiz-adv-x="1276" 
d="M1210 621l-448.003 0.000976562c-3.33301 63.333 -13.833 110.5 -31.5 141.5s-43.5 46.5 -77.5 46.5c-39.333 0 -67.166 -21.667 -83.499 -65s-24.5 -120 -24.5 -230c0 -111.333 8 -188 24 -230s44 -63 84 -63c36.667 0 63.334 15.667 80.001 47s26.334 84 29.001 158
h455c-8.66699 -159.333 -56.334 -274.333 -143.001 -345s-224 -106 -412 -106c-188.667 0 -336.667 48 -444 144s-161 227.667 -161 395s53.5 298.666 160.5 393.999s255.167 143 444.5 143c177.333 0 311.333 -35.5 402 -106.5s139.334 -178.833 146.001 -323.5z" />
    <glyph glyph-name="d" unicode="d" horiz-adv-x="1389" 
d="M797 885l0.000976562 589.998h471v-1334c0 -7.33301 0.5 -22.833 1.5 -46.5s2.16699 -55.167 3.5 -94.5h-476v143c-30.667 -57.333 -69.667 -99.666 -117 -126.999s-105.333 -41 -174 -41c-142 0 -250.833 46.833 -326.5 140.5s-113.5 227.834 -113.5 402.501
c0 169.333 35.667 300.833 107 394.5s171.333 140.5 300 140.5c72 0 134.667 -14 188 -42s98.666 -70 135.999 -126zM776.001 507.998c0 76.667 -8.16895 133 -24.502 169s-42.166 54 -77.499 54s-61.333 -18 -78 -54s-25 -92.333 -25 -169c0 -78 8.33301 -135.333 25 -172
s42.667 -55 78 -55c34.667 0 60.334 18.667 77.001 56s25 94.333 25 171z" />
    <glyph glyph-name="e" unicode="e" horiz-adv-x="1270" 
d="M522 645h256c0 3.33301 0.333008 8.33301 1 15s1 11.334 1 14.001c0 44.667 -10.667 79 -32 103s-52.333 36 -93 36c-41.333 0 -73.833 -13.833 -97.5 -41.5s-35.5 -65.834 -35.5 -114.501v-12zM1214 432l-688.001 -0.000976562v-29c0 -59.333 11.5 -104.5 34.5 -135.5
s56.833 -46.5 101.5 -46.5c38 0 66.833 9.5 86.5 28.5s32.834 50.5 39.501 94.5h410c0 -118 -46.333 -209 -139 -273s-225 -96 -397 -96c-187.333 0 -335 48.333 -443 145s-162 228 -162 394s54 297.333 162 394s255.667 145 443 145c178 0 315.333 -46.833 412 -140.5
s145 -227.167 145 -400.5c0 -14.667 -1.33301 -39 -4 -73c0 -3.33301 -0.333008 -5.66602 -1 -6.99902z" />
    <glyph glyph-name="f" unicode="f" horiz-adv-x="915" 
d="M848 1477l0.000976562 -289c-8.66699 1.33301 -17.834 2.33301 -27.501 3s-23.167 1 -40.5 1c-42.667 0 -73.5 -8.33301 -92.5 -25s-28.5 -44 -28.5 -82v-75h185v-301h-185v-709h-473v709h-120v301h112v129c0 118.667 35.333 208.667 106 270s174 92 310 92
c34.667 0 73 -2 115 -6s88.333 -10 139 -18z" />
    <glyph glyph-name="g" unicode="g" horiz-adv-x="1380" 
d="M1262 164c0 -116 -8.50391 -204.666 -25.5039 -265.999s-45.5 -112.666 -85.5 -153.999c-48 -48.667 -114.167 -85.334 -198.5 -110.001s-186.166 -37 -305.499 -37c-177.333 0 -310.5 27.333 -399.5 82s-134.5 137 -136.5 247h468
c1.33301 -28 10.666 -49.333 27.999 -64s43 -22 77 -22c40.667 0 70.334 13.333 89.001 40s28 70 28 130v133c-29.333 -42.667 -68.666 -74.5 -117.999 -95.5s-109.666 -31.5 -180.999 -31.5c-137.333 0 -243.666 45.167 -318.999 135.5s-113 217.166 -113 380.499
c0 166 39 294.333 117 385s187.667 136 329 136c63.333 0 118 -10.833 164 -32.5s86.333 -55.167 121 -100.5v108h461v-864zM564.996 526.001c0 -76 9.16699 -132.167 27.5 -168.5s46.833 -54.5 85.5 -54.5s67.167 18.167 85.5 54.5s27.5 92.5 27.5 168.5
s-9.5 133 -28.5 171s-47.167 57 -84.5 57c-38.667 0 -67.167 -18.5 -85.5 -55.5s-27.5 -94.5 -27.5 -172.5z" />
    <glyph glyph-name="h" unicode="h" horiz-adv-x="1384" 
d="M119 0l-0.00195312 1475h481v-607c31.333 61.333 74.333 107.5 129 138.5s120.334 46.5 197.001 46.5c115.333 0 200.833 -33.5 256.5 -100.5s83.5 -170.167 83.5 -309.5v-643h-486v637c0 41.333 -7.16699 71.5 -21.5 90.5s-37.166 28.5 -68.499 28.5
c-28 0 -50 -10.333 -66 -31s-24 -48.667 -24 -84v-641h-481z" />
    <glyph glyph-name="i" unicode="i" horiz-adv-x="768" 
d="M137 1165v310h494v-310h-494zM137 0v1028h494v-1028h-494z" />
    <glyph glyph-name="j" unicode="j" horiz-adv-x="768" 
d="M147 1165v310h494v-310h-494zM147 1028l494.001 0.000976562v-1028c0 -146 -34.667 -249.667 -104 -311s-188.333 -92 -357 -92c-30 0 -62.167 1 -96.5 3s-71.833 5 -112.5 9v256h29c51.333 0 88.666 10.667 111.999 32s35 55.666 35 102.999v1028z" />
    <glyph glyph-name="k" unicode="k" horiz-adv-x="1356" 
d="M119 0v1475h479v-836l195 389h526l-281 -436l303 -592h-534l-209 535v-535h-479z" />
    <glyph glyph-name="l" unicode="l" horiz-adv-x="768" 
d="M137 0v1475h494v-1475h-494z" />
    <glyph glyph-name="m" unicode="m" horiz-adv-x="2058" 
d="M127 0l-0.000976562 887.001c0 3.33301 -1 20.666 -3 51.999s-3.66699 61 -5 89h467v-160c40.667 61.333 90.167 107.5 148.5 138.5s124.833 46.5 199.5 46.5c69.333 0 129.166 -14.667 179.499 -44s98.166 -77 143.499 -143c35.333 60.667 82.333 107 141 139
s125.667 48 201 48c116 0 201.333 -33.333 256 -100s82 -170 82 -310v-643h-485v637c0 41.333 -7.16699 71.5 -21.5 90.5s-37.166 28.5 -68.499 28.5c-28 0 -49.667 -9.83301 -65 -29.5s-23 -47.5 -23 -83.5v-643h-486v637c0 41.333 -7.16699 71.5 -21.5 90.5
s-37.166 28.5 -68.499 28.5c-27.333 0 -49.166 -10.333 -65.499 -31s-24.5 -48.667 -24.5 -84v-641h-481z" />
    <glyph glyph-name="n" unicode="n" horiz-adv-x="1384" 
d="M121 0v887.001c0 3.33301 -1 20.666 -3 51.999s-3.66699 61 -5 89h467v-160c40 60.667 89.667 106.667 149 138s126.333 47 201 47c115.333 0 200.5 -33.333 255.5 -100s82.5 -170 82.5 -310v-643h-484v637c0 40.667 -7.33301 70.667 -22 90s-38 29 -70 29
c-28 0 -50 -10.333 -66 -31s-24 -48.667 -24 -84v-641h-481z" />
    <glyph glyph-name="o" unicode="o" horiz-adv-x="1325" 
d="M662 782c-36.667 0 -62.998 -20.5 -78.998 -61.5s-24 -109.833 -24 -206.5c0 -100.667 7.66699 -170.167 23 -208.5s42 -57.5 80 -57.5c37.333 0 63.666 19.167 78.999 57.5s23 107.833 23 208.5c0 99.333 -7.83301 168.833 -23.5 208.5s-41.834 59.5 -78.501 59.5z
M662.002 1053c188 0 336.001 -47.8311 444.001 -143.498s162 -226.834 162 -393.501c0 -167.333 -53.833 -299 -161.5 -395s-255.834 -144 -444.501 -144c-189.333 0 -337.5 47.667 -444.5 143s-160.5 226.666 -160.5 393.999c0 168 53.667 299.833 161 395.5
s255.333 143.5 444 143.5z" />
    <glyph glyph-name="p" unicode="p" horiz-adv-x="1384" 
d="M715 297c35.333 0 61.168 18.002 77.501 54.002s24.5 92.333 24.5 169c0 77.333 -8.33301 134.666 -25 171.999s-42.334 56 -77.001 56s-60.5 -18.833 -77.5 -56.5s-25.5 -94.834 -25.5 -171.501s8.33301 -133 25 -169s42.667 -54 78 -54zM121.002 -388.998
l0.000976562 1276c0 3.33301 -1 20.666 -3 51.999s-3.66699 61 -5 89h477v-141c30 56.667 68.833 98.5 116.5 125.5s106.5 40.5 176.5 40.5c141.333 0 249.666 -46.667 324.999 -140s113 -227.666 113 -402.999c0 -170 -35.5 -301.667 -106.5 -395
s-170.833 -140 -299.5 -140c-72 0 -135 14 -189 42s-99.333 70 -136 126v-532h-469z" />
    <glyph glyph-name="q" unicode="q" horiz-adv-x="1384" 
d="M571 520c0 -76.667 8.33398 -133 25.001 -169s42.667 -54 78 -54s61.166 18 77.499 54s24.5 92.333 24.5 169c0 75.333 -8.5 132.166 -25.5 170.499s-42.5 57.5 -76.5 57.5c-34.667 0 -60.5 -18.667 -77.5 -56s-25.5 -94.666 -25.5 -171.999zM797.001 143
c-37.333 -56 -82.667 -97.999 -136 -125.999s-116 -42 -188 -42c-128.667 0 -228.667 46.833 -300 140.5s-107 225.167 -107 394.5c0 175.333 37.833 309.666 113.5 402.999s184.5 140 326.5 140c68 0 126.5 -14 175.5 -42s87.5 -69.333 115.5 -124v141h476
c-1.33301 -39.333 -2.5 -70.833 -3.5 -94.5s-1.5 -39.167 -1.5 -46.5v-1276h-471v532z" />
    <glyph glyph-name="r" unicode="r" horiz-adv-x="995" 
d="M608 918l54.001 50.999c36 36 65.5 59 88.5 69s49.833 15 80.5 15c22 0 42.667 -2.66699 62 -8s37.666 -13 54.999 -23v-385c-35.333 10.667 -68 18.834 -98 24.501s-56.667 8.5 -80 8.5c-50 0 -86.333 -16.333 -109 -49s-34 -84.667 -34 -156v-465h-494v1028h475v-110z
" />
    <glyph glyph-name="s" unicode="s" horiz-adv-x="1255" 
d="M84 327l438 1v-19c0 -36 9 -62.667 27 -80s45.333 -26 82 -26c32 0 57.333 7.5 76 22.5s28 35.5 28 61.5c0 28.667 -9.66699 50 -29 64s-58.666 25.333 -117.999 34c-184 28 -311.667 67 -383 117s-107 121.667 -107 215c0 107.333 47 190.166 141 248.499
s228 87.5 402 87.5c156.667 0 280.167 -27.667 370.5 -83s135.5 -130.333 135.5 -225c0 -2.66699 -0.333008 -7 -1 -13s-1 -10.333 -1 -13h-408v16c0 32.667 -8.33301 57.334 -25 74.001s-41.667 25 -75 25c-32 0 -56.667 -6.83301 -74 -20.5s-26 -32.834 -26 -57.501
c0 -45.333 42 -75 126 -89c10 -1.33301 18 -2.66602 24 -3.99902l148.5 -25c41.667 -7.33301 66.834 -12.333 75.501 -15c66 -22 111.5 -39.833 136.5 -53.5s45.167 -29.5 60.5 -47.5c21.333 -24.667 37.666 -53.5 48.999 -86.5s17 -69.5 17 -109.5
c0 -114 -45.833 -201 -137.5 -261s-224.834 -90 -399.501 -90c-188 0 -327.5 25 -418.5 75s-136.5 127 -136.5 231c0 12 0.166992 21.5 0.5 28.5s0.833008 12.833 1.5 17.5z" />
    <glyph glyph-name="t" unicode="t" horiz-adv-x="958" 
d="M51 727l-0.000976562 301.002h131v178l475 168v-346h228v-301h-228v-315c0 -34 8.83301 -59.333 26.5 -76s44.5 -25 80.5 -25c12 0 26.833 1.66699 44.5 5s36.834 7.66602 57.501 12.999v-304c-64 -16.667 -123.167 -29.167 -177.5 -37.5s-104.833 -12.5 -151.5 -12.5
c-117.333 0 -205.833 26.167 -265.5 78.5s-89.5 130.166 -89.5 233.499v440h-131z" />
    <glyph glyph-name="u" unicode="u" horiz-adv-x="1384" 
d="M119 1028l483 0.000976562v-635c0 -41.333 7.5 -71.833 22.5 -91.5s38.167 -29.5 69.5 -29.5c28 0 50 10.333 66 31s24 48.667 24 84v641h482v-887c0 -4 1 -21.833 3 -53.5s3.66699 -60.834 5 -87.501h-467v162c-40.667 -61.333 -90.667 -107.833 -150 -139.5
s-126 -47.5 -200 -47.5c-115.333 0 -200.5 33.333 -255.5 100s-82.5 170 -82.5 310v643z" />
    <glyph glyph-name="v" unicode="v" horiz-adv-x="1290" 
d="M4 1028h502l137 -670l135 670h502l-309 -1028h-666z" />
    <glyph glyph-name="w" unicode="w" horiz-adv-x="1929" 
d="M10 1028h461l115 -686l123 686h530l123 -670l86 670h471l-227 -1028h-584l-127 672l-127 -672h-596z" />
    <glyph glyph-name="x" unicode="x" horiz-adv-x="1331" 
d="M4 0l313 551l-278 477h508l110 -274l99 274h504l-254 -481l315 -547h-510l-143 324l-129 -324h-535z" />
    <glyph glyph-name="y" unicode="y" horiz-adv-x="1319" 
d="M4 1028h524l140 -573l137 573h477l-473 -1417h-524l135 364z" />
    <glyph glyph-name="z" unicode="z" horiz-adv-x="1110" 
d="M66 0v291l366 414h-336v323h914v-323l-330 -371h360v-334h-974z" />
    <glyph glyph-name="braceleft" unicode="{" 
d="M905 1192c-5.33301 0 -12.834 0.329102 -22.501 0.996094s-16.5 1 -20.5 1c-58 0 -97 -10 -117 -30s-30 -62.667 -30 -128v-239c0 -89.333 -15.667 -152.5 -47 -189.5s-88 -62.833 -170 -77.5c82.667 -15.333 139.5 -41.166 170.5 -77.499s46.5 -98.5 46.5 -186.5v-241
c0 -64 9.83301 -106 29.5 -126s58.167 -30 115.5 -30c4.66699 0 12 0.333008 22 1s17.667 1 23 1v-285h-80c-92.667 0 -163.167 3.5 -211.5 10.5s-88.166 18.5 -119.499 34.5c-40 20 -68.167 48.167 -84.5 84.5s-24.5 98.5 -24.5 186.5v258
c0 84.667 -15.5 144.334 -46.5 179.001s-83.833 52 -158.5 52c-3.33301 0 -8.83301 -0.333008 -16.5 -1s-13.834 -1 -18.501 -1v283c4.66699 0 10.834 -0.333008 18.501 -1s13.167 -1 16.5 -1c74.667 0 127.5 17.333 158.5 52s46.5 94.334 46.5 179.001v258
c0 88.667 8.16699 151.334 24.5 188.001s44.5 65 84.5 85c32 16 72.167 27.5 120.5 34.5s118.5 10.5 210.5 10.5h80v-285z" />
    <glyph glyph-name="bar" unicode="|" 
d="M653 1565v-2048h-280v2048h280z" />
    <glyph glyph-name="braceright" unicode="}" 
d="M641 1159l0.000976562 -257.999c0 -84.667 15.5 -144.334 46.5 -179.001s83.833 -52 158.5 -52c3.33301 0 8.83301 0.333008 16.5 1s13.834 1 18.501 1v-283c-4.66699 0 -10.834 0.333008 -18.501 1s-13.167 1 -16.5 1c-74.667 0 -127.5 -17.333 -158.5 -52
s-46.5 -94.334 -46.5 -179.001v-258c0 -86.667 -8.33301 -148.667 -25 -186s-45.334 -66.333 -86.001 -87c-30 -15.333 -68.333 -26.333 -115 -33s-113.334 -10 -200.001 -10h-94v283c6 0 13.667 -0.333008 23 -1s16 -1 20 -1c58 0 97 10 117 30s30 62.667 30 128v241
c0 88 15.5 150.167 46.5 186.5s87.833 62.166 170.5 77.499c-82 14.667 -138.667 40.334 -170 77.001s-47 99.334 -47 188.001v241c0 65.333 -10 108 -30 128s-59 30 -117 30c-4 0 -10.667 -0.333008 -20 -1s-17 -1 -23 -1v285h80c92 0 162 -3.5 210 -10.5
s87.667 -18.5 119 -34.5c40.667 -20.667 69.334 -49.667 86.001 -87s25 -99.333 25 -186z" />
    <glyph glyph-name="asciitilde" unicode="~" horiz-adv-x="1706" 
d="M1530 543c-68 -46 -131.998 -79.667 -191.998 -101s-119.667 -32 -179 -32c-36 0 -73.167 3.83301 -111.5 11.5s-89.833 22.834 -154.5 45.501c-82.667 28 -147.5 46.667 -194.5 56s-92.833 14 -137.5 14c-56 0 -114.667 -12.667 -176 -38s-130.333 -65.333 -207 -120
v299c79.333 50 151.5 86.333 216.5 109s128.833 34 191.5 34c38.667 0 79.667 -4 123 -12s95 -21.667 155 -41c14.667 -4.66699 36 -12 64 -22c101.333 -36 179.666 -54 234.999 -54c57.333 0 115.666 12.167 174.999 36.5s123.333 62.166 192 113.499v-299z" />
    <glyph glyph-name="euro" horiz-adv-x="1442" 
d="M1397 475l0.00195312 -15.999c0 -149.333 -55.5 -267 -166.5 -353s-263.167 -129 -456.5 -129c-178 0 -322.5 46 -433.5 138s-182.833 225 -215.5 399h-137l73 168h49c0 7.33301 -0.166992 15.5 -0.5 24.5s-0.5 21.833 -0.5 38.5c0 8 0.166992 16 0.5 24
s0.833008 16 1.5 24h-152l74 168h102c36 178 109.333 311.833 220 401.5s258.667 134.5 444 134.5c179.333 0 317.333 -37 414 -111s156 -188 178 -342l-515 1c-10 27.333 -24 48.333 -42 63s-38.667 22 -62 22c-32.667 0 -58.834 -13.833 -78.501 -41.5
s-33.167 -70.167 -40.5 -127.5h293l-82 -168h-219c-0.666992 -10.667 -1.16699 -20.667 -1.5 -30s-0.5 -18 -0.5 -26c0 -6 0.333008 -15.167 1 -27.5s1 -21.5 1 -27.5h168l-82 -168h-79c4.66699 -56 17.5 -99 38.5 -129s48.833 -45 83.5 -45
c31.333 0 56.666 11.667 75.999 35s31 56.666 35 99.999h512z" />
    <glyph glyph-name="euro" unicode="&#x20ac;" horiz-adv-x="1442" 
d="M1397 475l0.00195312 -15.999c0 -149.333 -55.5 -267 -166.5 -353s-263.167 -129 -456.5 -129c-178 0 -322.5 46 -433.5 138s-182.833 225 -215.5 399h-137l73 168h49c0 7.33301 -0.166992 15.5 -0.5 24.5s-0.5 21.833 -0.5 38.5c0 8 0.166992 16 0.5 24
s0.833008 16 1.5 24h-152l74 168h102c36 178 109.333 311.833 220 401.5s258.667 134.5 444 134.5c179.333 0 317.333 -37 414 -111s156 -188 178 -342l-515 1c-10 27.333 -24 48.333 -42 63s-38.667 22 -62 22c-32.667 0 -58.834 -13.833 -78.501 -41.5
s-33.167 -70.167 -40.5 -127.5h293l-82 -168h-219c-0.666992 -10.667 -1.16699 -20.667 -1.5 -30s-0.5 -18 -0.5 -26c0 -6 0.333008 -15.167 1 -27.5s1 -21.5 1 -27.5h168l-82 -168h-79c4.66699 -56 17.5 -99 38.5 -129s48.833 -45 83.5 -45
c31.333 0 56.666 11.667 75.999 35s31 56.666 35 99.999h512z" />
    <glyph glyph-name="nonbreakingspace" unicode="&#xa0;" horiz-adv-x="1442" 
 />
    <glyph glyph-name="exclamdown" unicode="&#xa1;" horiz-adv-x="711" 
d="M158 1042h395l86 -1042h-567zM121 1475h475v-336h-475v336z" />
    <glyph glyph-name="cent" unicode="&#xa2;" horiz-adv-x="1442" 
d="M1217 621h-451.004c-3.33301 64.667 -13.666 112.167 -30.999 142.5s-42.666 45.5 -75.999 45.5c-39.333 0 -67.5 -22.167 -84.5 -66.5s-25.5 -120.5 -25.5 -228.5c0 -110 8.33301 -186.333 25 -229s45 -64 85 -64c36.667 0 63.167 15.667 79.5 47s25.5 84 27.5 158h456
c-6 -137.333 -43.667 -242.333 -113 -315s-172 -115.667 -308 -129v-250h-277v250c-148 28 -262.167 88 -342.5 180s-120.5 209.333 -120.5 352s40.833 260.667 122.5 354s195.834 152 342.501 176v226h275v-228c134.667 -17.333 235.834 -60.333 303.501 -129
s105.167 -166 112.5 -292z" />
    <glyph glyph-name="sterling" unicode="&#xa3;" horiz-adv-x="1442" 
d="M102 0l0.000976562 351.999h142v207h-178v299h182v27c0 184 49.167 324.167 147.5 420.5s241.5 144.5 429.5 144.5c180 0 320.167 -37.833 420.5 -113.5s154.166 -183.834 161.499 -324.501h-492c-4 26.667 -13.5 47.334 -28.5 62.001s-34.167 22 -57.5 22
c-34.667 0 -60 -14.667 -76 -44s-24 -75.666 -24 -138.999c0 -6 0.333008 -15.167 1 -27.5s1 -21.5 1 -27.5h281v-299h-281v-207h639v-352h-1268z" />
    <glyph glyph-name="currency" unicode="&#xa4;" horiz-adv-x="1442" 
d="M1397 475l0.00195312 -15.999c0 -149.333 -55.5 -267 -166.5 -353s-263.167 -129 -456.5 -129c-178 0 -322.5 46 -433.5 138s-182.833 225 -215.5 399h-137l73 168h49c0 7.33301 -0.166992 15.5 -0.5 24.5s-0.5 21.833 -0.5 38.5c0 8 0.166992 16 0.5 24
s0.833008 16 1.5 24h-152l74 168h102c36 178 109.333 311.833 220 401.5s258.667 134.5 444 134.5c179.333 0 317.333 -37 414 -111s156 -188 178 -342l-515 1c-10 27.333 -24 48.333 -42 63s-38.667 22 -62 22c-32.667 0 -58.834 -13.833 -78.501 -41.5
s-33.167 -70.167 -40.5 -127.5h293l-82 -168h-219c-0.666992 -10.667 -1.16699 -20.667 -1.5 -30s-0.5 -18 -0.5 -26c0 -6 0.333008 -15.167 1 -27.5s1 -21.5 1 -27.5h168l-82 -168h-79c4.66699 -56 17.5 -99 38.5 -129s48.833 -45 83.5 -45
c31.333 0 56.666 11.667 75.999 35s31 56.666 35 99.999h512z" />
    <glyph glyph-name="yen" unicode="&#xa5;" horiz-adv-x="1602" 
d="M520 0v494l-57 112h-453v182h355l-74 136h-281v184h185l-166 319h579l221 -577l197 577h543l-166 -319h188v-184h-282l-70 -136h352v-182h-448l-56 -112v-494h-567z" />
    <glyph glyph-name="brokenbar" unicode="&#xa6;" 
d="M653 408v-758h-280v758h280zM653 1432v-758h-280v758h280z" />
    <glyph glyph-name="section" unicode="&#xa7;" horiz-adv-x="1290" 
d="M604 920c-32 -22.667 -54.333 -43.3311 -67 -61.998s-19 -40.334 -19 -65.001c0 -42 15 -77.833 45 -107.5s88.667 -63.5 176 -101.5c14.667 16 25.5 33.833 32.5 53.5s10.5 40.5 10.5 62.5c0 47.333 -12.5 86.666 -37.5 117.999s-71.833 65.333 -140.5 102zM309 1010
c-54 24.667 -94.501 56 -121.501 94s-40.5 83 -40.5 135c0 92 37 159 111 201s192 63 354 63c54.667 0 117.834 -2.83301 189.501 -8.5s154.167 -14.5 247.5 -26.5v-272c-63.333 17.333 -123 30.5 -179 39.5s-103 13.5 -141 13.5c-31.333 0 -55.833 -5.83301 -73.5 -17.5
s-26.5 -27.5 -26.5 -47.5c0 -15.333 5 -27.333 15 -36s30.333 -17.334 61 -26.001c32.667 -8.66699 77.334 -18 134.001 -28s95.667 -18.333 117 -25c84 -27.333 145.333 -63.833 184 -109.5s58 -104.167 58 -175.5c0 -64.667 -14.5 -121.167 -43.5 -169.5
s-73.833 -91.5 -134.5 -129.5c47.333 -22 83.666 -52.667 108.999 -92s38 -85 38 -137c0 -96 -38.667 -167.5 -116 -214.5s-195.666 -70.5 -354.999 -70.5c-80 0 -161.5 3.33301 -244.5 10s-174.167 17 -273.5 31v271c50 -14.667 106.667 -25.834 170 -33.501
s129 -11.5 197 -11.5c37.333 0 65.666 5.83301 84.999 17.5s29 28.834 29 51.501c0 41.333 -54.333 71.666 -163 90.999c-53.333 10 -96.333 18.667 -129 26c-92 20.667 -161.5 55.834 -208.5 105.501s-70.5 112.834 -70.5 189.501c0 57.333 18.5 110.5 55.5 159.5
s92.167 92.833 165.5 131.5z" />
    <glyph glyph-name="dieresis" unicode="&#xa8;" 
d="M567 1483h252v-271h-252v271zM205 1483h250v-271h-250v271z" />
    <glyph glyph-name="copyright" unicode="&#xa9;" horiz-adv-x="1706" 
d="M987 883c-2 42 -14.6631 75.002 -37.9961 99.002s-54.333 36 -93 36c-48.667 0 -86.834 -23.833 -114.501 -71.5s-41.5 -114.834 -41.5 -201.501c0 -87.333 13.667 -152.833 41 -196.5s68.333 -65.5 123 -65.5c40 0 70.667 12.167 92 36.5s33 59.833 35 106.5l248 1
c-4 -99.333 -40.333 -178.5 -109 -237.5s-159.334 -88.5 -272.001 -88.5c-130 0 -232.167 38.667 -306.5 116s-111.5 184 -111.5 320c0 133.333 37 241.166 111 323.499s170.333 123.5 289 123.5c117.333 0 210.166 -26.5 278.499 -79.5s105.166 -126.833 110.499 -221.5
h-242zM1452 743.002c0 80 -15.001 156.33 -45.001 228.997s-73 137 -129 193c-58 58 -122.833 101.833 -194.5 131.5s-148.167 44.5 -229.5 44.5c-82 0 -158.667 -14.5 -230 -43.5s-134.666 -71.833 -189.999 -128.5c-57.333 -58 -101.333 -123.667 -132 -197
s-46 -149.666 -46 -228.999s15.167 -155.166 45.5 -227.499s73.833 -136.833 130.5 -193.5c57.333 -57.333 122 -101.166 194 -131.499s148 -45.5 228 -45.5c79.333 0 155.5 15.333 228.5 46s138.833 75 197.5 133c56.667 55.333 99.5 118.5 128.5 189.5
s43.5 147.5 43.5 229.5zM852.003 1493c103.333 0 200.834 -18.666 292.501 -55.999s173.167 -91.666 244.5 -162.999c69.333 -70 122.833 -151 160.5 -243s56.5 -188.667 56.5 -290c0 -102.667 -18.5 -198.834 -55.5 -288.501s-90.833 -168.834 -161.5 -237.501
c-74 -72 -157.333 -127.5 -250 -166.5s-188.334 -58.5 -287.001 -58.5c-99.333 0 -194 19 -284 57s-171.333 93.333 -244 166c-72 71.333 -127 152.333 -165 243s-57 185.667 -57 285c0 100.667 19.167 197 57.5 289s93.833 174.667 166.5 248
c68.667 70 148 123.333 238 160s186 55 288 55z" />
    <glyph glyph-name="ordfeminine" unicode="&#xaa;" horiz-adv-x="938" 
d="M84 1268c9.33301 73.333 46.333 129.166 111 167.499s154.667 57.5 270 57.5c68 0 128.5 -6 181.5 -18s95.5 -29.333 127.5 -52c31.333 -21.333 53.5 -49.166 66.5 -83.499s19.5 -86.833 19.5 -157.5v-426h-323l-11 71c-26 -30 -58 -52.167 -96 -66.5
s-83.667 -21.5 -137 -21.5c-75.333 0 -134.833 20.167 -178.5 60.5s-65.5 95.5 -65.5 165.5c0 90 35.167 154.5 105.5 193.5s189.5 58.5 357.5 58.5h10v45c0 26 -5.16699 44.667 -15.5 56s-26.833 17 -49.5 17c-24 0 -42 -5.33301 -54 -16s-18.667 -27.667 -20 -51h-299z
M522 1075l-47 0.00195312c-36.667 0 -65 -7.33301 -85 -22s-30 -35.334 -30 -62.001c0 -23.333 7.16699 -41.833 21.5 -55.5s33.833 -20.5 58.5 -20.5c28 0 48.667 8.66699 62 26s20 43.666 20 78.999v55z" />
    <glyph glyph-name="guillemotleft" unicode="&#xab;" horiz-adv-x="1350" 
d="M915 0l-297 514l297 514h394l-219 -514l219 -514h-394zM354 0l-297 514l297 514h391l-217 -514l217 -514h-391z" />
    <glyph glyph-name="logicalnot" unicode="&#xac;" horiz-adv-x="1706" 
d="M1452 868v-501h-272v235h-926v266h1198z" />
    <glyph glyph-name="sfthyphen" unicode="&#xad;" horiz-adv-x="827" 
d="M63 313v437h701v-437h-701z" />
    <glyph glyph-name="registered" unicode="&#xae;" horiz-adv-x="1706" 
d="M823 1006h-39v-193h54c38.667 0 68 8.33301 88 25s30 41 30 73c0 32.667 -10.667 56.667 -32 72s-55 23 -101 23zM862 1165c116 0 204.5 -20.333 265.5 -61s91.5 -100 91.5 -178c0 -52 -14.333 -97 -43 -135s-69 -66 -121 -84l178 -355h-279l-145 312h-25v-312h-256v813
h334zM1452 743c0 80 -15.001 156.33 -45.001 228.997s-73 137 -129 193c-58 58 -122.833 101.833 -194.5 131.5s-148.167 44.5 -229.5 44.5c-82 0 -158.667 -14.5 -230 -43.5s-134.666 -71.833 -189.999 -128.5c-57.333 -58 -101.333 -123.667 -132 -197
s-46 -149.666 -46 -228.999s15.167 -155.166 45.5 -227.499s73.833 -136.833 130.5 -193.5c57.333 -57.333 122 -101.166 194 -131.499s148 -45.5 228 -45.5c79.333 0 155.5 15.333 228.5 46s138.833 75 197.5 133c56.667 55.333 99.5 118.5 128.5 189.5
s43.5 147.5 43.5 229.5zM851.999 1493c103.333 0 200.834 -18.666 292.501 -55.999s173.167 -91.666 244.5 -162.999c69.333 -70 122.833 -151 160.5 -243s56.5 -188.667 56.5 -290c0 -102.667 -18.5 -198.834 -55.5 -288.501s-90.833 -168.834 -161.5 -237.501
c-74 -72 -157.333 -127.5 -250 -166.5s-188.334 -58.5 -287.001 -58.5c-99.333 0 -194 19 -284 57s-171.333 93.333 -244 166c-72 71.333 -127 152.333 -165 243s-57 185.667 -57 285c0 100.667 19.167 197 57.5 289s93.833 174.667 166.5 248
c68.667 70 148 123.333 238 160s186 55 288 55z" />
    <glyph glyph-name="macron" unicode="&#xaf;" 
d="M205 1434h614v-170h-614v170z" />
    <glyph glyph-name="degree" unicode="&#xb0;" horiz-adv-x="674" 
d="M489 1151c0 41.333 -15.001 77 -45.001 107s-66 45 -108 45c-41.333 0 -76.666 -14.833 -105.999 -44.5s-44 -65.5 -44 -107.5c0 -42.667 14.667 -79 44 -109s65.333 -45 108 -45c41.333 0 76.833 15.333 106.5 46s44.5 66.667 44.5 108zM337.999 1473
c89.333 0 165.166 -31.499 227.499 -94.499s93.5 -139.5 93.5 -229.5c0 -88 -31.5 -163.667 -94.5 -227s-139.167 -95 -228.5 -95s-165.333 31.167 -228 93.5s-94 138.5 -94 228.5c0 89.333 31.833 165.666 95.5 228.999s139.834 95 228.501 95z" />
    <glyph glyph-name="plusminus" unicode="&#xb1;" horiz-adv-x="1706" 
d="M1452 231v-272h-1198v272h1198zM993 1262v-310h459v-272h-459v-309h-280v309h-459v272h459v310h280z" />
    <glyph glyph-name="twosuperior" unicode="&#xb2;" horiz-adv-x="952" 
d="M55 569l0.00195312 228c158.667 71.333 279.667 138.833 363 202.5s125 119.5 125 167.5c0 20 -6.83301 36 -20.5 48s-32.167 18 -55.5 18c-28 0 -49.333 -8.16699 -64 -24.5s-22 -39.5 -22 -69.5h-330c3.33301 102 40.166 178 110.499 228s176.166 75 317.499 75
c130.667 0 233 -22.833 307 -68.5s111 -108.167 111 -187.5c0 -64.667 -29.167 -127.167 -87.5 -187.5s-157.5 -128.833 -297.5 -205.5c18.667 0 45 0.333008 79 1c78.667 2 130 3 154 3h154v-228h-844z" />
    <glyph glyph-name="threesuperior" unicode="&#xb3;" horiz-adv-x="952" 
d="M41 846h326.999c2.66699 -28 10.834 -48.667 24.501 -62s33.834 -20 60.501 -20c29.333 0 52.333 7.33301 69 22s25 35.334 25 62.001c0 28 -10.833 47.667 -32.5 59s-61.5 17 -119.5 17h-41v161h19c60.667 0 103.5 6.33301 128.5 19s37.5 33.667 37.5 63
c0 25.333 -7.16699 44.333 -21.5 57s-35.166 19 -62.499 19c-26.667 0 -46.834 -7.83301 -60.501 -23.5s-21.167 -39.167 -22.5 -70.5h-311v8c0 97.333 33.167 168.833 99.5 214.5s170.5 68.5 312.5 68.5c137.333 0 241 -19 311 -57s105 -94.333 105 -169
c0 -47.333 -16.667 -85.333 -50 -114s-87 -51.334 -161 -68.001c79.333 -14 137.666 -38.5 174.999 -73.5s56 -82.167 56 -141.5c0 -37.333 -11.833 -74.5 -35.5 -111.5s-55.5 -67.5 -95.5 -91.5c-34 -20 -76.333 -34.833 -127 -44.5s-110.667 -14.5 -180 -14.5
c-143.333 0 -250.833 23.5 -322.5 70.5s-107.5 117.167 -107.5 210.5v10z" />
    <glyph glyph-name="acute" unicode="&#xb4;" 
d="M530 1534h287l-325 -371h-154z" />
    <glyph glyph-name="mu" unicode="&#xb5;" horiz-adv-x="1372" 
d="M602 1087l-83.999 -614.002l-3 -33.5c-0.666992 -7.66699 -1 -14.167 -1 -19.5c0 -45.333 10.5 -78.833 31.5 -100.5s52.833 -32.5 95.5 -32.5c52.667 0 94 17.333 124 52s50 88.334 60 161.001l84 587h418l-158 -1087h-368l18 131
c-24 -45.333 -51.5 -79.166 -82.5 -101.499s-66.167 -33.5 -105.5 -33.5c-40.667 0 -75.834 10.5 -105.501 31.5s-53.167 52.167 -70.5 93.5l-72 -543h-412l209 1509h422z" />
    <glyph glyph-name="paragraph" unicode="&#xb6;" 
d="M1014 1337l-101 0.000976562v-1337h-202v1337h-140v-1337h-202v784c-108.667 5.33301 -195.667 39.666 -261 102.999s-98 144.333 -98 243c0 104.667 35.5 189 106.5 253s165.167 96 282.5 96h615v-142z" />
    <glyph glyph-name="periodcentered" unicode="&#xb7;" horiz-adv-x="721" 
d="M109 723c0 68.667 24.667 127.832 74 177.499s108.333 74.5 177 74.5c70 0 129.5 -24.5 178.5 -73.5s73.5 -108.5 73.5 -178.5s-24.5 -129.5 -73.5 -178.5s-108.5 -73.5 -178.5 -73.5c-68 0 -126.833 24.833 -176.5 74.5s-74.5 108.834 -74.5 177.501z" />
    <glyph glyph-name="cedilla" unicode="&#xb8;" 
d="M455 0l114 0.000976562v-84h19c74 0 130.667 -16.5 170 -49.5s59 -80.5 59 -142.5c0 -66.667 -22 -118.167 -66 -154.5s-106.667 -54.5 -188 -54.5c-38.667 0 -82 3.83301 -130 11.5s-101.667 19.5 -161 35.5v137c54 -14.667 104.333 -25.834 151 -33.501
s86.667 -11.5 120 -11.5c28.667 0 50.167 5.83301 64.5 17.5s21.5 29.834 21.5 54.501c0 21.333 -9.5 37.166 -28.5 47.499s-49.167 15.5 -90.5 15.5c-14 0 -25 -0.166992 -33 -0.5s-15.333 -0.833008 -22 -1.5v213z" />
    <glyph glyph-name="onesuperior" unicode="&#xb9;" horiz-adv-x="950" 
d="M381 569l-0.000976562 551c-25.333 -19.333 -55.166 -36.5 -89.499 -51.5s-75.5 -29.167 -123.5 -42.5v250c54 14.667 104.833 34.5 152.5 59.5s92.5 54.833 134.5 89.5h284v-856h-358z" />
    <glyph glyph-name="ordmasculine" unicode="&#xba;" horiz-adv-x="993" 
d="M496 1303c-27.333 0 -46.833 -14.334 -58.5 -43.001s-17.5 -76.667 -17.5 -144c0 -71.333 5.66699 -120.166 17 -146.499s31 -39.5 59 -39.5s47.833 13.5 59.5 40.5s17.5 75.5 17.5 145.5c0 69.333 -5.83301 117.833 -17.5 145.5s-31.5 41.5 -59.5 41.5zM496 1493
c141.333 0 252.334 -33.667 333.001 -101s121 -159.333 121 -276s-40.333 -208.667 -121 -276s-191.667 -101 -333 -101c-142 0 -253 33.5 -333 100.5s-120 159.167 -120 276.5c0 116.667 40.167 208.667 120.5 276s191.166 101 332.499 101z" />
    <glyph glyph-name="guillemotright" unicode="&#xbb;" horiz-adv-x="1350" 
d="M604 0l217 514l-217 514h391l297 -514l-297 -514h-391zM41 0l219 514l-219 514h393l297 -514l-297 -514h-393z" />
    <glyph glyph-name="onequarter" unicode="&#xbc;" horiz-adv-x="2159" 
d="M1528 346h170v262zM1272 131v240l289 428h467v-453h106v-215h-106v-131h-334v131h-422zM565 0l789 1427h235l-786 -1427h-238zM362 627v514c-23.333 -18 -51.333 -34.167 -84 -48.5s-72 -27.5 -118 -39.5v233c52 14 100.667 32.667 146 56s87.333 51 126 83h273v-798
h-343z" />
    <glyph glyph-name="onehalf" unicode="&#xbd;" horiz-adv-x="2159" 
d="M1303 0l-0.00195312 213.001c150.667 66.667 265.667 129.667 345 189s119 111.666 119 156.999c0 17.333 -6.5 31.5 -19.5 42.5s-30.167 16.5 -51.5 16.5c-27.333 0 -47.833 -7.16699 -61.5 -21.5s-20.5 -35.833 -20.5 -64.5l-316 1
c2.66699 94.667 37.667 165.334 105 212.001s168.333 70 303 70c124.667 0 222.334 -21.333 293.001 -64s106 -101.334 106 -176.001c0 -60 -27.833 -118.333 -83.5 -175s-149.834 -121 -282.501 -193c48.667 2 91.834 3.5 129.501 4.5s68.834 1.5 93.501 1.5h145v-213h-804
zM564.998 0.000976562l789 1427h235l-786 -1427h-238zM361.998 627.001v514c-23.333 -18 -51.333 -34.167 -84 -48.5s-72 -27.5 -118 -39.5v233c52 14 100.667 32.667 146 56s87.333 51 126 83h273v-798h-343z" />
    <glyph glyph-name="threequarters" unicode="&#xbe;" horiz-adv-x="2159" 
d="M1530 346h170v262zM1274 131v240l289 428h467v-453h106v-215h-106v-131h-334v131h-422zM567 0l789 1427h235l-786 -1427h-238zM41 885l309.001 -0.00292969c2 -25.333 9.83301 -44.333 23.5 -57s33.167 -19 58.5 -19c28 0 50 7 66 21s24 33 24 57
c0 26 -10.167 44 -30.5 54s-58.5 15 -114.5 15h-39v152h16c58 0 99.167 6 123.5 18s36.5 32 36.5 60c0 22.667 -6.66699 39.834 -20 51.501s-33.333 17.5 -60 17.5c-25.333 0 -44.333 -7.16699 -57 -21.5s-19.667 -36.5 -21 -66.5h-299v9c0 90.667 31.667 157 95 199
s163.666 63 300.999 63c130.667 0 229.5 -17.667 296.5 -53s100.5 -87.333 100.5 -156c0 -44 -16 -79.5 -48 -106.5s-83.667 -48.167 -155 -63.5c74.667 -13.333 129.834 -36.333 165.501 -69s53.5 -76.667 53.5 -132c0 -35.333 -11.167 -70.166 -33.5 -104.499
s-52.833 -62.166 -91.5 -83.499c-32 -19.333 -72.167 -33.833 -120.5 -43.5s-105.5 -14.5 -171.5 -14.5c-136.667 0 -238.834 22 -306.501 66s-101.5 110.333 -101.5 199v8z" />
    <glyph glyph-name="questiondown" unicode="&#xbf;" horiz-adv-x="1223" 
d="M987 1036v-143.001c0 -26.667 -8.16699 -55.5 -24.5 -86.5s-39.5 -61.5 -69.5 -91.5l-70 -67c-83.333 -77.333 -125 -137 -125 -179c0 -28.667 11.667 -51.167 35 -67.5s55.333 -24.5 96 -24.5c32 0 70.333 4.33301 115 13s98 22 160 40v-377
c-72 -26 -141 -45.5 -207 -58.5s-131.667 -19.5 -197 -19.5c-182.667 0 -324.167 36 -424.5 108s-150.5 173.333 -150.5 304c0 62 12.667 118.833 38 170.5s64 98.5 116 140.5l57 47c88 70.667 140 124 156 160c4 9.33301 7 22.333 9 39s3 37.334 3 62.001v30h483zM987 1475
v-342h-483v342h483z" />
    <glyph glyph-name="Agrave" unicode="&#xc0;" horiz-adv-x="1702" 
d="M963 594l-127 582l-136 -582h263zM0 0l487 1475h750l465 -1475h-608l-52 233h-428l-55 -233h-559zM547 1956h287l192 -371h-154z" />
    <glyph glyph-name="Aacute" unicode="&#xc1;" horiz-adv-x="1702" 
d="M963 594l-127 582l-136 -582h263zM0 0l487 1475h750l465 -1475h-608l-52 233h-428l-55 -233h-559zM870 1956h287l-325 -371h-154z" />
    <glyph glyph-name="Acircumflex" unicode="&#xc2;" horiz-adv-x="1702" 
d="M963 594l-127 582l-136 -582h263zM0 0l487 1475h750l465 -1475h-608l-52 233h-428l-55 -233h-559zM723 1956h256l192 -371h-153l-166 199l-168 -199h-154z" />
    <glyph glyph-name="Atilde" unicode="&#xc3;" horiz-adv-x="1702" 
d="M963 594l-127 582l-136 -582h263zM0 0l487 1475h750l465 -1475h-608l-52 233h-428l-55 -233h-559zM1065 1911l119.001 0.000976562c-20 -88 -47.5 -152.333 -82.5 -193s-80.5 -61 -136.5 -61c-12.667 0 -25.167 1 -37.5 3s-25.166 5 -38.499 9l-92 27
c-14.667 4 -27.667 7 -39 9s-21 3 -29 3c-22.667 0 -41.334 -6.33301 -56.001 -19s-26 -32.334 -34 -59.001h-119c18.667 84 45.5 146 80.5 186s79.833 60 134.5 60c12.667 0 26.667 -1.16699 42 -3.5s31.333 -5.83301 48 -10.5l95 -29c8 -2.66699 16.667 -4.66699 26 -6
s19.666 -2 30.999 -2c22 0 40.333 7.33301 55 22s25.667 36 33 64z" />
    <glyph glyph-name="Adieresis" unicode="&#xc4;" horiz-adv-x="1702" 
d="M963 594l-127 582l-136 -582h263zM0 0l487 1475h750l465 -1475h-608l-52 233h-428l-55 -233h-559zM907 1905h252v-271h-252v271zM545 1905h250v-271h-250v271z" />
    <glyph glyph-name="Aring" unicode="&#xc5;" horiz-adv-x="1702" 
d="M862 1817c-31.333 0 -58.167 -11.167 -80.5 -33.5s-33.5 -49.5 -33.5 -81.5s11 -59.167 33 -81.5s49 -33.5 81 -33.5s59.167 11.167 81.5 33.5s33.5 49.5 33.5 81.5s-11.167 59.167 -33.5 81.5s-49.5 33.5 -81.5 33.5zM962.999 594l-127 582l-136 -582h263z
M-0.000976562 0l479 1452h277c-50.667 19.333 -91 51.666 -121 96.999s-45 96.333 -45 153c0 76 26 140 78 192s116 78 192 78s140.5 -26.333 193.5 -79s79.5 -116.334 79.5 -191.001c0 -54.667 -14.167 -103.334 -42.5 -146.001s-68.833 -77.334 -121.5 -104.001h272
l461 -1452h-608l-52 233h-428l-55 -233h-559z" />
    <glyph glyph-name="AE" unicode="&#xc6;" horiz-adv-x="2087" 
d="M715 594h258l-58 582zM-47 0l616 1475h1389v-379h-506l14 -160h451v-379h-414l21 -178h450v-379h-938l-24 233h-424l-94 -233h-541z" />
    <glyph glyph-name="Ccedilla" unicode="&#xc7;" horiz-adv-x="1554" 
d="M1485 540c-2 -189.333 -59.499 -330.499 -172.499 -423.499s-284.167 -139.5 -513.5 -139.5c-233.333 0 -413.833 66.167 -541.5 198.5s-191.5 318.833 -191.5 559.5c0 244 64.667 432.333 194 565s313.666 199 552.999 199c218 0 381.333 -48.167 490 -144.5
s163.667 -241.833 165 -436.5h-516v18c0 64 -10.833 110 -32.5 138s-57.167 42 -106.5 42c-58.667 0 -100 -26.667 -124 -80s-36 -152.333 -36 -297c0 -146.667 11.833 -246.834 35.5 -300.501s64.5 -80.5 122.5 -80.5c46 0 79.833 14.333 101.5 43s34.167 75 37.5 139h535z
M721.001 0.000976562l114 0.000976562v-84h19c74 0 130.667 -16.5 170 -49.5s59 -80.5 59 -142.5c0 -66.667 -22 -118.167 -66 -154.5s-106.667 -54.5 -188 -54.5c-38.667 0 -82 3.83301 -130 11.5s-101.667 19.5 -161 35.5v137c54 -14.667 104.333 -25.834 151 -33.501
s86.667 -11.5 120 -11.5c28.667 0 50.167 5.83301 64.5 17.5s21.5 29.834 21.5 54.501c0 21.333 -9.5 37.166 -28.5 47.499s-49.167 15.5 -90.5 15.5c-14 0 -25 -0.166992 -33 -0.5s-15.333 -0.833008 -22 -1.5v213z" />
    <glyph glyph-name="Egrave" unicode="&#xc8;" horiz-adv-x="1374" 
d="M141 0v1475h1104v-379h-547v-160h508v-379h-508v-174h566v-383h-1123zM383 1956h287l192 -371h-154z" />
    <glyph glyph-name="Eacute" unicode="&#xc9;" horiz-adv-x="1374" 
d="M141 0v1475h1104v-379h-547v-160h508v-379h-508v-174h566v-383h-1123zM706 1956h287l-325 -371h-154z" />
    <glyph glyph-name="Ecircumflex" unicode="&#xca;" horiz-adv-x="1374" 
d="M141 0v1475h1104v-379h-547v-160h508v-379h-508v-174h566v-383h-1123zM559 1956h256l192 -371h-153l-166 199l-168 -199h-154z" />
    <glyph glyph-name="Edieresis" unicode="&#xcb;" horiz-adv-x="1374" 
d="M141 0v1475h1104v-379h-547v-160h508v-379h-508v-174h566v-383h-1123zM743 1905h252v-271h-252v271zM381 1905h250v-271h-250v271z" />
    <glyph glyph-name="Igrave" unicode="&#xcc;" horiz-adv-x="872" 
d="M721 1475v-1475h-569v1475h569zM131 1956h287l192 -371h-154z" />
    <glyph glyph-name="Iacute" unicode="&#xcd;" horiz-adv-x="872" 
d="M721 1475v-1475h-569v1475h569zM454 1956h287l-325 -371h-154z" />
    <glyph glyph-name="Icircumflex" unicode="&#xce;" horiz-adv-x="872" 
d="M721 1475v-1475h-569v1475h569zM307 1956h256l192 -371h-153l-166 199l-168 -199h-154z" />
    <glyph glyph-name="Idieresis" unicode="&#xcf;" horiz-adv-x="872" 
d="M721 1475v-1475h-569v1475h569zM491 1905h252v-271h-252v271zM129 1905h250v-271h-250v271z" />
    <glyph glyph-name="Eth" unicode="&#xd0;" horiz-adv-x="1663" 
d="M711 342c4 0 10 -0.332031 18 -0.999023s13.333 -1 16 -1c96.667 0 165.667 31.167 207 93.5s62 167.166 62 314.499c0 142 -19.333 243 -58 303s-102.667 90 -192 90c-14 0 -24.667 -0.166992 -32 -0.5s-14.333 -0.833008 -21 -1.5v-283h137v-238h-137v-276z
M141 -1.99902v620h-137v238h137v619h660c272 0 473.833 -60 605.5 -180s197.5 -304 197.5 -552c0 -246.667 -67 -432.5 -201 -557.5s-333.333 -187.5 -598 -187.5h-664z" />
    <glyph glyph-name="Ntilde" unicode="&#xd1;" horiz-adv-x="1753" 
d="M606 907v-907h-465v1475h688l318 -883v883h465v-1475h-688zM1090 1911l119.001 0.000976562c-20 -88 -47.5 -152.333 -82.5 -193s-80.5 -61 -136.5 -61c-12.667 0 -25.167 1 -37.5 3s-25.166 5 -38.499 9l-92 27c-14.667 4 -27.667 7 -39 9s-21 3 -29 3
c-22.667 0 -41.334 -6.33301 -56.001 -19s-26 -32.334 -34 -59.001h-119c18.667 84 45.5 146 80.5 186s79.833 60 134.5 60c12.667 0 26.667 -1.16699 42 -3.5s31.333 -5.83301 48 -10.5l95 -29c8 -2.66699 16.667 -4.66699 26 -6s19.666 -2 30.999 -2
c22 0 40.333 7.33301 55 22s25.667 36 33 64z" />
    <glyph glyph-name="Ograve" unicode="&#xd2;" horiz-adv-x="1630" 
d="M799 -23c-233.333 0 -413.833 66.166 -541.5 198.499s-191.5 318.833 -191.5 559.5c0 244 65.167 432.333 195.5 565s315.5 199 555.5 199c238.667 0 422.667 -66.167 552 -198.5s194 -320.166 194 -563.499c0 -246.667 -65.167 -435 -195.5 -565
s-319.833 -195 -568.5 -195zM815 1116c-59.333 0 -101.166 -27.167 -125.499 -81.5s-36.5 -155.5 -36.5 -303.5c0 -138.667 12.167 -235.5 36.5 -290.5s65.5 -82.5 123.5 -82.5c59.333 0 101.166 29 125.499 87s36.5 162.333 36.5 313c0 136 -12 229.667 -36 281
s-65.333 77 -124 77zM510 1956h287l192 -371h-154z" />
    <glyph glyph-name="Oacute" unicode="&#xd3;" horiz-adv-x="1630" 
d="M799 -23c-233.333 0 -413.833 66.166 -541.5 198.499s-191.5 318.833 -191.5 559.5c0 244 65.167 432.333 195.5 565s315.5 199 555.5 199c238.667 0 422.667 -66.167 552 -198.5s194 -320.166 194 -563.499c0 -246.667 -65.167 -435 -195.5 -565
s-319.833 -195 -568.5 -195zM815 1116c-59.333 0 -101.166 -27.167 -125.499 -81.5s-36.5 -155.5 -36.5 -303.5c0 -138.667 12.167 -235.5 36.5 -290.5s65.5 -82.5 123.5 -82.5c59.333 0 101.166 29 125.499 87s36.5 162.333 36.5 313c0 136 -12 229.667 -36 281
s-65.333 77 -124 77zM833 1956h287l-325 -371h-154z" />
    <glyph glyph-name="Ocircumflex" unicode="&#xd4;" horiz-adv-x="1630" 
d="M799 -23c-233.333 0 -413.833 66.166 -541.5 198.499s-191.5 318.833 -191.5 559.5c0 244 65.167 432.333 195.5 565s315.5 199 555.5 199c238.667 0 422.667 -66.167 552 -198.5s194 -320.166 194 -563.499c0 -246.667 -65.167 -435 -195.5 -565
s-319.833 -195 -568.5 -195zM815 1116c-59.333 0 -101.166 -27.167 -125.499 -81.5s-36.5 -155.5 -36.5 -303.5c0 -138.667 12.167 -235.5 36.5 -290.5s65.5 -82.5 123.5 -82.5c59.333 0 101.166 29 125.499 87s36.5 162.333 36.5 313c0 136 -12 229.667 -36 281
s-65.333 77 -124 77zM686 1956h256l192 -371h-153l-166 199l-168 -199h-154z" />
    <glyph glyph-name="Otilde" unicode="&#xd5;" horiz-adv-x="1630" 
d="M799 -23c-233.333 0 -413.833 66.166 -541.5 198.499s-191.5 318.833 -191.5 559.5c0 244 65.167 432.333 195.5 565s315.5 199 555.5 199c238.667 0 422.667 -66.167 552 -198.5s194 -320.166 194 -563.499c0 -246.667 -65.167 -435 -195.5 -565
s-319.833 -195 -568.5 -195zM815 1116c-59.333 0 -101.166 -27.167 -125.499 -81.5s-36.5 -155.5 -36.5 -303.5c0 -138.667 12.167 -235.5 36.5 -290.5s65.5 -82.5 123.5 -82.5c59.333 0 101.166 29 125.499 87s36.5 162.333 36.5 313c0 136 -12 229.667 -36 281
s-65.333 77 -124 77zM1028 1911l119.001 0.000976562c-20 -88 -47.5 -152.333 -82.5 -193s-80.5 -61 -136.5 -61c-12.667 0 -25.167 1 -37.5 3s-25.166 5 -38.499 9l-92 27c-14.667 4 -27.667 7 -39 9s-21 3 -29 3c-22.667 0 -41.334 -6.33301 -56.001 -19
s-26 -32.334 -34 -59.001h-119c18.667 84 45.5 146 80.5 186s79.833 60 134.5 60c12.667 0 26.667 -1.16699 42 -3.5s31.333 -5.83301 48 -10.5l95 -29c8 -2.66699 16.667 -4.66699 26 -6s19.666 -2 30.999 -2c22 0 40.333 7.33301 55 22s25.667 36 33 64z" />
    <glyph glyph-name="Odieresis" unicode="&#xd6;" horiz-adv-x="1630" 
d="M799 -23c-233.333 0 -413.833 66.166 -541.5 198.499s-191.5 318.833 -191.5 559.5c0 244 65.167 432.333 195.5 565s315.5 199 555.5 199c238.667 0 422.667 -66.167 552 -198.5s194 -320.166 194 -563.499c0 -246.667 -65.167 -435 -195.5 -565
s-319.833 -195 -568.5 -195zM815 1116c-59.333 0 -101.166 -27.167 -125.499 -81.5s-36.5 -155.5 -36.5 -303.5c0 -138.667 12.167 -235.5 36.5 -290.5s65.5 -82.5 123.5 -82.5c59.333 0 101.166 29 125.499 87s36.5 162.333 36.5 313c0 136 -12 229.667 -36 281
s-65.333 77 -124 77zM870 1905h252v-271h-252v271zM508 1905h250v-271h-250v271z" />
    <glyph glyph-name="multiply" unicode="&#xd7;" horiz-adv-x="1706" 
d="M874 805l426 426l195 -195l-426 -426l426 -426l-195 -194l-426 426l-425 -426l-195 194l426 426l-426 426l195 195z" />
    <glyph glyph-name="Oslash" unicode="&#xd8;" horiz-adv-x="1630" 
d="M819 1116c-59.333 0 -100.832 -26.833 -124.499 -80.5s-35.5 -155.167 -35.5 -304.5c0 -140 12 -237.167 36 -291.5s64.667 -81.5 122 -81.5c59.333 0 101.166 29 125.499 87s36.5 162.333 36.5 313c0 136 -12 229.667 -36 281s-65.333 77 -124 77zM96.001 -57
l161.999 228.999c-64 72 -112 155 -144 249s-48 198.667 -48 314c0 245.333 64.833 434 194.5 566s315.167 198 556.5 198c66.667 0 128.5 -4.83301 185.5 -14.5s109.167 -24.5 156.5 -44.5l148 209l182 -140l-139 -192c68.667 -64 121.334 -145.667 158.001 -245
s55 -211.666 55 -336.999c0 -246 -65.167 -433.833 -195.5 -563.5s-319.833 -194.5 -568.5 -194.5c-68 0 -131.167 5.66699 -189.5 17s-111.833 28.333 -160.5 51l-173 -248z" />
    <glyph glyph-name="Ugrave" unicode="&#xd9;" horiz-adv-x="1636" 
d="M133 1475l552.999 0.00195312v-912c0 -62.667 11.167 -110.334 33.5 -143.001s54.833 -49 97.5 -49c41.333 0 73.5 17 96.5 51s34.5 81 34.5 141v912h555v-889c0 -208 -55.667 -361.5 -167 -460.5s-284.333 -148.5 -519 -148.5c-135.333 0 -247.166 14.333 -335.499 43
s-161.5 74 -219.5 136c-46 49.333 -79 104.166 -99 164.499s-30 148.833 -30 265.5v889zM513.999 1956h287l192 -371h-154z" />
    <glyph glyph-name="Uacute" unicode="&#xda;" horiz-adv-x="1636" 
d="M133 1475l552.999 0.00195312v-912c0 -62.667 11.167 -110.334 33.5 -143.001s54.833 -49 97.5 -49c41.333 0 73.5 17 96.5 51s34.5 81 34.5 141v912h555v-889c0 -208 -55.667 -361.5 -167 -460.5s-284.333 -148.5 -519 -148.5c-135.333 0 -247.166 14.333 -335.499 43
s-161.5 74 -219.5 136c-46 49.333 -79 104.166 -99 164.499s-30 148.833 -30 265.5v889zM836.999 1956h287l-325 -371h-154z" />
    <glyph glyph-name="Ucircumflex" unicode="&#xdb;" horiz-adv-x="1636" 
d="M133 1475l552.999 0.00195312v-912c0 -62.667 11.167 -110.334 33.5 -143.001s54.833 -49 97.5 -49c41.333 0 73.5 17 96.5 51s34.5 81 34.5 141v912h555v-889c0 -208 -55.667 -361.5 -167 -460.5s-284.333 -148.5 -519 -148.5c-135.333 0 -247.166 14.333 -335.499 43
s-161.5 74 -219.5 136c-46 49.333 -79 104.166 -99 164.499s-30 148.833 -30 265.5v889zM689.999 1956h256l192 -371h-153l-166 199l-168 -199h-154z" />
    <glyph glyph-name="Udieresis" unicode="&#xdc;" horiz-adv-x="1636" 
d="M133 1475l552.999 0.00195312v-912c0 -62.667 11.167 -110.334 33.5 -143.001s54.833 -49 97.5 -49c41.333 0 73.5 17 96.5 51s34.5 81 34.5 141v912h555v-889c0 -208 -55.667 -361.5 -167 -460.5s-284.333 -148.5 -519 -148.5c-135.333 0 -247.166 14.333 -335.499 43
s-161.5 74 -219.5 136c-46 49.333 -79 104.166 -99 164.499s-30 148.833 -30 265.5v889zM873.999 1905h252v-271h-252v271zM511.999 1905h250v-271h-250v271z" />
    <glyph glyph-name="Yacute" unicode="&#xdd;" horiz-adv-x="1427" 
d="M436 510l-493 965h581l219 -598l197 598h543l-479 -965v-510h-568v510zM733 1956h287l-325 -371h-154z" />
    <glyph glyph-name="Thorn" unicode="&#xde;" horiz-adv-x="1526" 
d="M696 909l1.00195 -307c5.33301 -0.666992 11.166 -1.16699 17.499 -1.5s15.166 -0.5 26.499 -0.5c60 0 105.167 13.5 135.5 40.5s45.5 67.5 45.5 121.5c0 50 -15.667 87 -47 111s-80 36 -146 36h-33zM141.002 0v1475h555v-236h162c210 0 366.333 -39.5 469 -118.5
s154 -199.167 154 -360.5c0 -163.333 -51.167 -286.833 -153.5 -370.5s-252.5 -125.5 -450.5 -125.5h-181v-264h-555z" />
    <glyph glyph-name="germandbls" unicode="&#xdf;" horiz-adv-x="1608" 
d="M119 0l0.00195312 1010c0 174 50.5 298.667 151.5 374s268.833 113 503.5 113c208 0 364.167 -29.667 468.5 -89s156.5 -147.666 156.5 -264.999c0 -43.333 -8.5 -82.166 -25.5 -116.499s-44.5 -69.166 -82.5 -104.499c-7.33301 -6.66699 -18 -15.667 -32 -27
c-40.667 -34 -61 -64.667 -61 -92c0 -32 31.667 -64 95 -96c33.333 -16.667 59.666 -31 78.999 -43c60 -37.333 104.667 -81 134 -131s44 -107.667 44 -173c0 -126.667 -41.5 -222.5 -124.5 -287.5s-205.167 -97.5 -366.5 -97.5c-146.667 0 -252 27.333 -316 82
s-96 144.334 -96 269.001v30h348v-8c0 -30 5.16699 -52.5 15.5 -67.5s25.833 -22.5 46.5 -22.5c17.333 0 31.5 6.83301 42.5 20.5s16.5 31.5 16.5 53.5c0 41.333 -43.333 90 -130 146c-20 12.667 -35.333 22.667 -46 30l-3 2c-149.333 100 -224 190.667 -224 272
c0 36 6.5 67.5 19.5 94.5s35.833 55.833 68.5 86.5c10 9.33301 24.667 22.333 44 39c60.667 52 91 97 91 135c0 32 -11.833 58 -35.5 78s-54.834 30 -93.501 30c-71.333 0 -123.333 -24.333 -156 -73s-49 -126.667 -49 -234v-938h-483z" />
    <glyph glyph-name="agrave" unicode="&#xe0;" horiz-adv-x="1251" 
d="M113 731c11.333 104.667 60.167 184.499 146.5 239.499s205.833 82.5 358.5 82.5c92 0 173.333 -8.5 244 -25.5s127.334 -41.5 170.001 -73.5c42 -31.333 71.667 -71.666 89 -120.999s26 -124.333 26 -225v-608h-432l-13 102
c-34.667 -42.667 -77.334 -74.5 -128.001 -95.5s-111.667 -31.5 -183 -31.5c-100 0 -179.167 28.833 -237.5 86.5s-87.5 136.167 -87.5 235.5c0 130 46.833 222.833 140.5 278.5s252.167 83.5 475.5 83.5h14v64c0 37.333 -6.83301 64 -20.5 80s-36.167 24 -67.5 24
c-32 0 -55.833 -7.66699 -71.5 -23s-24.5 -39.333 -26.5 -72zM696.001 456.999l-63 -0.000976562c-49.333 0 -87 -10.5 -113 -31.5s-39 -50.833 -39 -89.5c0 -33.333 9.5 -59.833 28.5 -79.5s44.5 -29.5 76.5 -29.5c37.333 0 65 12.333 83 37s27 62.334 27 113.001v80z
M342.001 1534h287l192 -371h-154z" />
    <glyph glyph-name="aacute" unicode="&#xe1;" horiz-adv-x="1251" 
d="M113 731c11.333 104.667 60.167 184.499 146.5 239.499s205.833 82.5 358.5 82.5c92 0 173.333 -8.5 244 -25.5s127.334 -41.5 170.001 -73.5c42 -31.333 71.667 -71.666 89 -120.999s26 -124.333 26 -225v-608h-432l-13 102
c-34.667 -42.667 -77.334 -74.5 -128.001 -95.5s-111.667 -31.5 -183 -31.5c-100 0 -179.167 28.833 -237.5 86.5s-87.5 136.167 -87.5 235.5c0 130 46.833 222.833 140.5 278.5s252.167 83.5 475.5 83.5h14v64c0 37.333 -6.83301 64 -20.5 80s-36.167 24 -67.5 24
c-32 0 -55.833 -7.66699 -71.5 -23s-24.5 -39.333 -26.5 -72zM696.001 456.999l-63 -0.000976562c-49.333 0 -87 -10.5 -113 -31.5s-39 -50.833 -39 -89.5c0 -33.333 9.5 -59.833 28.5 -79.5s44.5 -29.5 76.5 -29.5c37.333 0 65 12.333 83 37s27 62.334 27 113.001v80z
M665.001 1534h287l-325 -371h-154z" />
    <glyph glyph-name="acircumflex" unicode="&#xe2;" horiz-adv-x="1251" 
d="M113 731c11.333 104.667 60.167 184.499 146.5 239.499s205.833 82.5 358.5 82.5c92 0 173.333 -8.5 244 -25.5s127.334 -41.5 170.001 -73.5c42 -31.333 71.667 -71.666 89 -120.999s26 -124.333 26 -225v-608h-432l-13 102
c-34.667 -42.667 -77.334 -74.5 -128.001 -95.5s-111.667 -31.5 -183 -31.5c-100 0 -179.167 28.833 -237.5 86.5s-87.5 136.167 -87.5 235.5c0 130 46.833 222.833 140.5 278.5s252.167 83.5 475.5 83.5h14v64c0 37.333 -6.83301 64 -20.5 80s-36.167 24 -67.5 24
c-32 0 -55.833 -7.66699 -71.5 -23s-24.5 -39.333 -26.5 -72zM696.001 456.999l-63 -0.000976562c-49.333 0 -87 -10.5 -113 -31.5s-39 -50.833 -39 -89.5c0 -33.333 9.5 -59.833 28.5 -79.5s44.5 -29.5 76.5 -29.5c37.333 0 65 12.333 83 37s27 62.334 27 113.001v80z
M518.001 1534h256l192 -371h-153l-166 199l-168 -199h-154z" />
    <glyph glyph-name="atilde" unicode="&#xe3;" horiz-adv-x="1251" 
d="M113 731c11.333 104.667 60.167 184.499 146.5 239.499s205.833 82.5 358.5 82.5c92 0 173.333 -8.5 244 -25.5s127.334 -41.5 170.001 -73.5c42 -31.333 71.667 -71.666 89 -120.999s26 -124.333 26 -225v-608h-432l-13 102
c-34.667 -42.667 -77.334 -74.5 -128.001 -95.5s-111.667 -31.5 -183 -31.5c-100 0 -179.167 28.833 -237.5 86.5s-87.5 136.167 -87.5 235.5c0 130 46.833 222.833 140.5 278.5s252.167 83.5 475.5 83.5h14v64c0 37.333 -6.83301 64 -20.5 80s-36.167 24 -67.5 24
c-32 0 -55.833 -7.66699 -71.5 -23s-24.5 -39.333 -26.5 -72zM696.001 456.999l-63 -0.000976562c-49.333 0 -87 -10.5 -113 -31.5s-39 -50.833 -39 -89.5c0 -33.333 9.5 -59.833 28.5 -79.5s44.5 -29.5 76.5 -29.5c37.333 0 65 12.333 83 37s27 62.334 27 113.001v80z
M860.001 1489l119.001 0.000976562c-20 -88 -47.5 -152.333 -82.5 -193s-80.5 -61 -136.5 -61c-12.667 0 -25.167 1 -37.5 3s-25.166 5 -38.499 9l-92 27c-14.667 4 -27.667 7 -39 9s-21 3 -29 3c-22.667 0 -41.334 -6.33301 -56.001 -19s-26 -32.334 -34 -59.001h-119
c18.667 84 45.5 146 80.5 186s79.833 60 134.5 60c12.667 0 26.667 -1.16699 42 -3.5s31.333 -5.83301 48 -10.5l95 -29c8 -2.66699 16.667 -4.66699 26 -6s19.666 -2 30.999 -2c22 0 40.333 7.33301 55 22s25.667 36 33 64z" />
    <glyph glyph-name="adieresis" unicode="&#xe4;" horiz-adv-x="1251" 
d="M113 731c11.333 104.667 60.167 184.499 146.5 239.499s205.833 82.5 358.5 82.5c92 0 173.333 -8.5 244 -25.5s127.334 -41.5 170.001 -73.5c42 -31.333 71.667 -71.666 89 -120.999s26 -124.333 26 -225v-608h-432l-13 102
c-34.667 -42.667 -77.334 -74.5 -128.001 -95.5s-111.667 -31.5 -183 -31.5c-100 0 -179.167 28.833 -237.5 86.5s-87.5 136.167 -87.5 235.5c0 130 46.833 222.833 140.5 278.5s252.167 83.5 475.5 83.5h14v64c0 37.333 -6.83301 64 -20.5 80s-36.167 24 -67.5 24
c-32 0 -55.833 -7.66699 -71.5 -23s-24.5 -39.333 -26.5 -72zM696.001 456.999l-63 -0.000976562c-49.333 0 -87 -10.5 -113 -31.5s-39 -50.833 -39 -89.5c0 -33.333 9.5 -59.833 28.5 -79.5s44.5 -29.5 76.5 -29.5c37.333 0 65 12.333 83 37s27 62.334 27 113.001v80z
M702.001 1483h252v-271h-252v271zM340.001 1483h250v-271h-250v271z" />
    <glyph glyph-name="aring" unicode="&#xe5;" horiz-adv-x="1251" 
d="M627 1513c-32 0 -59.168 -11.167 -81.501 -33.5s-33.5 -49.166 -33.5 -80.499c0 -32 11 -58.833 33 -80.5s49.333 -32.5 82 -32.5c32 0 59 11 81 33s33 48.667 33 80s-11.167 58.166 -33.5 80.499s-49.166 33.5 -80.499 33.5zM624.999 1671
c75.333 0 139.5 -26.332 192.5 -78.999s79.5 -116.334 79.5 -191.001c0 -76 -26.333 -140.5 -79 -193.5s-117 -79.5 -193 -79.5s-140.167 26.333 -192.5 79s-78.5 117.334 -78.5 194.001c0 75.333 26.167 139.166 78.5 191.499s116.5 78.5 192.5 78.5zM112.999 731.001
c11.333 104.667 60.167 184.499 146.5 239.499s205.833 82.5 358.5 82.5c92 0 173.333 -8.5 244 -25.5s127.334 -41.5 170.001 -73.5c42 -31.333 71.667 -71.666 89 -120.999s26 -124.333 26 -225v-608h-432l-13 102c-34.667 -42.667 -77.334 -74.5 -128.001 -95.5
s-111.667 -31.5 -183 -31.5c-100 0 -179.167 28.833 -237.5 86.5s-87.5 136.167 -87.5 235.5c0 130 46.833 222.833 140.5 278.5s252.167 83.5 475.5 83.5h14v64c0 37.333 -6.83301 64 -20.5 80s-36.167 24 -67.5 24c-32 0 -55.833 -7.66699 -71.5 -23
s-24.5 -39.333 -26.5 -72zM696 457l-63 -0.000976562c-49.333 0 -87 -10.5 -113 -31.5s-39 -50.833 -39 -89.5c0 -33.333 9.5 -59.833 28.5 -79.5s44.5 -29.5 76.5 -29.5c37.333 0 65 12.333 83 37s27 62.334 27 113.001v80z" />
    <glyph glyph-name="ae" unicode="&#xe6;" horiz-adv-x="1851" 
d="M1104 645l256 0.000976562c0 4 0.333008 9 1 15s1 10.667 1 14c0 44.667 -11 79 -33 103s-53.333 36 -94 36s-72.667 -13.833 -96 -41.5s-35 -65.834 -35 -114.501v-12zM936 940.001c42.667 37.333 91.5 65.502 146.5 84.502s116.167 28.5 183.5 28.5
c172.667 0 304.834 -43.5 396.501 -130.5s137.5 -212.833 137.5 -377.5c0 -16.667 -1 -47.667 -3 -93c-0.666992 -8.66699 -1 -15.334 -1 -20.001h-690v-29c0 -59.333 11.333 -104.5 34 -135.5s56.334 -46.5 101.001 -46.5c34.667 0 63 10.5 85 31.5s36.667 51.5 44 91.5
h408c0 -114.667 -45.333 -204.834 -136 -270.501s-215.334 -98.5 -374.001 -98.5c-92 0 -170.333 10 -235 30s-116.667 50.333 -156 91c-51.333 -41.333 -109 -72.166 -173 -92.499s-137.667 -30.5 -221 -30.5c-146.667 0 -252.834 25.667 -318.501 77
s-98.5 133.666 -98.5 246.999c0 130 46.833 222.833 140.5 278.5s252.167 83.5 475.5 83.5h14v64c0 37.333 -6.83301 64 -20.5 80s-36.167 24 -67.5 24c-32 0 -55.833 -7.66699 -71.5 -23s-24.5 -39.333 -26.5 -72l-397 -1c9.33301 100 56.666 178.667 141.999 236
s198.333 86 339 86c70 0 133.333 -9.33301 190 -28s107.334 -47 152.001 -85zM696 457.003l-63 -0.000976562c-49.333 0 -87 -10.5 -113 -31.5s-39 -50.833 -39 -89.5c0 -33.333 9.5 -59.833 28.5 -79.5s44.5 -29.5 76.5 -29.5c37.333 0 65 12.333 83 37
s27 62.334 27 113.001v80z" />
    <glyph glyph-name="ccedilla" unicode="&#xe7;" horiz-adv-x="1276" 
d="M1210 621l-448.003 0.000976562c-3.33301 63.333 -13.833 110.5 -31.5 141.5s-43.5 46.5 -77.5 46.5c-39.333 0 -67.166 -21.667 -83.499 -65s-24.5 -120 -24.5 -230c0 -111.333 8 -188 24 -230s44 -63 84 -63c36.667 0 63.334 15.667 80.001 47s26.334 84 29.001 158
h455c-8.66699 -159.333 -56.334 -274.333 -143.001 -345s-224 -106 -412 -106c-188.667 0 -336.667 48 -444 144s-161 227.667 -161 395s53.5 298.666 160.5 393.999s255.167 143 444.5 143c177.333 0 311.333 -35.5 402 -106.5s139.334 -178.833 146.001 -323.5z
M581.997 0.000976562l114 0.000976562v-84h19c74 0 130.667 -16.5 170 -49.5s59 -80.5 59 -142.5c0 -66.667 -22 -118.167 -66 -154.5s-106.667 -54.5 -188 -54.5c-38.667 0 -82 3.83301 -130 11.5s-101.667 19.5 -161 35.5v137c54 -14.667 104.333 -25.834 151 -33.501
s86.667 -11.5 120 -11.5c28.667 0 50.167 5.83301 64.5 17.5s21.5 29.834 21.5 54.501c0 21.333 -9.5 37.166 -28.5 47.499s-49.167 15.5 -90.5 15.5c-14 0 -25 -0.166992 -33 -0.5s-15.333 -0.833008 -22 -1.5v213z" />
    <glyph glyph-name="egrave" unicode="&#xe8;" horiz-adv-x="1270" 
d="M522 645h256c0 3.33301 0.333008 8.33301 1 15s1 11.334 1 14.001c0 44.667 -10.667 79 -32 103s-52.333 36 -93 36c-41.333 0 -73.833 -13.833 -97.5 -41.5s-35.5 -65.834 -35.5 -114.501v-12zM1214 432l-688.001 -0.000976562v-29c0 -59.333 11.5 -104.5 34.5 -135.5
s56.833 -46.5 101.5 -46.5c38 0 66.833 9.5 86.5 28.5s32.834 50.5 39.501 94.5h410c0 -118 -46.333 -209 -139 -273s-225 -96 -397 -96c-187.333 0 -335 48.333 -443 145s-162 228 -162 394s54 297.333 162 394s255.667 145 443 145c178 0 315.333 -46.833 412 -140.5
s145 -227.167 145 -400.5c0 -14.667 -1.33301 -39 -4 -73c0 -3.33301 -0.333008 -5.66602 -1 -6.99902zM349.999 1534h287l192 -371h-154z" />
    <glyph glyph-name="eacute" unicode="&#xe9;" horiz-adv-x="1270" 
d="M522 645h256c0 3.33301 0.333008 8.33301 1 15s1 11.334 1 14.001c0 44.667 -10.667 79 -32 103s-52.333 36 -93 36c-41.333 0 -73.833 -13.833 -97.5 -41.5s-35.5 -65.834 -35.5 -114.501v-12zM1214 432l-688.001 -0.000976562v-29c0 -59.333 11.5 -104.5 34.5 -135.5
s56.833 -46.5 101.5 -46.5c38 0 66.833 9.5 86.5 28.5s32.834 50.5 39.501 94.5h410c0 -118 -46.333 -209 -139 -273s-225 -96 -397 -96c-187.333 0 -335 48.333 -443 145s-162 228 -162 394s54 297.333 162 394s255.667 145 443 145c178 0 315.333 -46.833 412 -140.5
s145 -227.167 145 -400.5c0 -14.667 -1.33301 -39 -4 -73c0 -3.33301 -0.333008 -5.66602 -1 -6.99902zM672.999 1534h287l-325 -371h-154z" />
    <glyph glyph-name="ecircumflex" unicode="&#xea;" horiz-adv-x="1270" 
d="M522 645h256c0 3.33301 0.333008 8.33301 1 15s1 11.334 1 14.001c0 44.667 -10.667 79 -32 103s-52.333 36 -93 36c-41.333 0 -73.833 -13.833 -97.5 -41.5s-35.5 -65.834 -35.5 -114.501v-12zM1214 432l-688.001 -0.000976562v-29c0 -59.333 11.5 -104.5 34.5 -135.5
s56.833 -46.5 101.5 -46.5c38 0 66.833 9.5 86.5 28.5s32.834 50.5 39.501 94.5h410c0 -118 -46.333 -209 -139 -273s-225 -96 -397 -96c-187.333 0 -335 48.333 -443 145s-162 228 -162 394s54 297.333 162 394s255.667 145 443 145c178 0 315.333 -46.833 412 -140.5
s145 -227.167 145 -400.5c0 -14.667 -1.33301 -39 -4 -73c0 -3.33301 -0.333008 -5.66602 -1 -6.99902zM525.999 1534h256l192 -371h-153l-166 199l-168 -199h-154z" />
    <glyph glyph-name="edieresis" unicode="&#xeb;" horiz-adv-x="1270" 
d="M522 645h256c0 3.33301 0.333008 8.33301 1 15s1 11.334 1 14.001c0 44.667 -10.667 79 -32 103s-52.333 36 -93 36c-41.333 0 -73.833 -13.833 -97.5 -41.5s-35.5 -65.834 -35.5 -114.501v-12zM1214 432l-688.001 -0.000976562v-29c0 -59.333 11.5 -104.5 34.5 -135.5
s56.833 -46.5 101.5 -46.5c38 0 66.833 9.5 86.5 28.5s32.834 50.5 39.501 94.5h410c0 -118 -46.333 -209 -139 -273s-225 -96 -397 -96c-187.333 0 -335 48.333 -443 145s-162 228 -162 394s54 297.333 162 394s255.667 145 443 145c178 0 315.333 -46.833 412 -140.5
s145 -227.167 145 -400.5c0 -14.667 -1.33301 -39 -4 -73c0 -3.33301 -0.333008 -5.66602 -1 -6.99902zM709.999 1483h252v-271h-252v271zM347.999 1483h250v-271h-250v271z" />
    <glyph glyph-name="igrave" unicode="&#xec;" horiz-adv-x="768" 
d="M137 0v1028h494v-1028h-494zM80 1534h287l192 -371h-154z" />
    <glyph glyph-name="iacute" unicode="&#xed;" horiz-adv-x="768" 
d="M137 0v1028h494v-1028h-494zM403 1534h287l-325 -371h-154z" />
    <glyph glyph-name="icircumflex" unicode="&#xee;" horiz-adv-x="768" 
d="M137 0v1028h494v-1028h-494zM256 1534h256l192 -371h-153l-166 199l-168 -199h-154z" />
    <glyph glyph-name="idieresis" unicode="&#xef;" horiz-adv-x="768" 
d="M137 0v1028h494v-1028h-494zM440 1483h252v-271h-252v271zM78 1483h250v-271h-250v271z" />
    <glyph glyph-name="eth" unicode="&#xf0;" horiz-adv-x="1325" 
d="M559 471c0 -88.667 7.83203 -150.5 23.499 -185.5s42.167 -52.5 79.5 -52.5c36.667 0 62.834 17.5 78.501 52.5s23.5 96.833 23.5 185.5c0 86.667 -8 148.334 -24 185.001s-42 55 -78 55c-36.667 0 -63 -18.333 -79 -55s-24 -98.334 -24 -185.001zM671.999 965
l-47.001 62.5l-47 59.5l-265 -79l-49 151l185 58l-115 86l172 200c27.333 -15.333 58.833 -35.5 94.5 -60.5s94.167 -68.833 175.5 -131.5l266 82l48 -152l-189 -57c122 -124.667 212.667 -245.167 272 -361.5s89 -232.833 89 -349.5
c0 -163.333 -50.667 -286.833 -152 -370.5s-250.666 -125.5 -447.999 -125.5c-189.333 0 -337.5 43.833 -444.5 131.5s-160.5 208.5 -160.5 362.5c0 152.667 52.667 273.167 158 361.5s250 132.5 434 132.5h23z" />
    <glyph glyph-name="ntilde" unicode="&#xf1;" horiz-adv-x="1384" 
d="M121 0v887.001c0 3.33301 -1 20.666 -3 51.999s-3.66699 61 -5 89h467v-160c40 60.667 89.667 106.667 149 138s126.333 47 201 47c115.333 0 200.5 -33.333 255.5 -100s82.5 -170 82.5 -310v-643h-484v637c0 40.667 -7.33301 70.667 -22 90s-38 29 -70 29
c-28 0 -50 -10.333 -66 -31s-24 -48.667 -24 -84v-641h-481zM905 1489l119.001 0.000976562c-20 -88 -47.5 -152.333 -82.5 -193s-80.5 -61 -136.5 -61c-12.667 0 -25.167 1 -37.5 3s-25.166 5 -38.499 9l-92 27c-14.667 4 -27.667 7 -39 9s-21 3 -29 3
c-22.667 0 -41.334 -6.33301 -56.001 -19s-26 -32.334 -34 -59.001h-119c18.667 84 45.5 146 80.5 186s79.833 60 134.5 60c12.667 0 26.667 -1.16699 42 -3.5s31.333 -5.83301 48 -10.5l95 -29c8 -2.66699 16.667 -4.66699 26 -6s19.666 -2 30.999 -2
c22 0 40.333 7.33301 55 22s25.667 36 33 64z" />
    <glyph glyph-name="ograve" unicode="&#xf2;" horiz-adv-x="1325" 
d="M662 782c-36.667 0 -62.998 -20.5 -78.998 -61.5s-24 -109.833 -24 -206.5c0 -100.667 7.66699 -170.167 23 -208.5s42 -57.5 80 -57.5c37.333 0 63.666 19.167 78.999 57.5s23 107.833 23 208.5c0 99.333 -7.83301 168.833 -23.5 208.5s-41.834 59.5 -78.501 59.5z
M662.002 1053c188 0 336.001 -47.8311 444.001 -143.498s162 -226.834 162 -393.501c0 -167.333 -53.833 -299 -161.5 -395s-255.834 -144 -444.501 -144c-189.333 0 -337.5 47.667 -444.5 143s-160.5 226.666 -160.5 393.999c0 168 53.667 299.833 161 395.5
s255.333 143.5 444 143.5zM359.003 1534h287l192 -371h-154z" />
    <glyph glyph-name="oacute" unicode="&#xf3;" horiz-adv-x="1325" 
d="M662 782c-36.667 0 -62.998 -20.5 -78.998 -61.5s-24 -109.833 -24 -206.5c0 -100.667 7.66699 -170.167 23 -208.5s42 -57.5 80 -57.5c37.333 0 63.666 19.167 78.999 57.5s23 107.833 23 208.5c0 99.333 -7.83301 168.833 -23.5 208.5s-41.834 59.5 -78.501 59.5z
M662.002 1053c188 0 336.001 -47.8311 444.001 -143.498s162 -226.834 162 -393.501c0 -167.333 -53.833 -299 -161.5 -395s-255.834 -144 -444.501 -144c-189.333 0 -337.5 47.667 -444.5 143s-160.5 226.666 -160.5 393.999c0 168 53.667 299.833 161 395.5
s255.333 143.5 444 143.5zM682.003 1534h287l-325 -371h-154z" />
    <glyph glyph-name="ocircumflex" unicode="&#xf4;" horiz-adv-x="1325" 
d="M662 782c-36.667 0 -62.998 -20.5 -78.998 -61.5s-24 -109.833 -24 -206.5c0 -100.667 7.66699 -170.167 23 -208.5s42 -57.5 80 -57.5c37.333 0 63.666 19.167 78.999 57.5s23 107.833 23 208.5c0 99.333 -7.83301 168.833 -23.5 208.5s-41.834 59.5 -78.501 59.5z
M662.002 1053c188 0 336.001 -47.8311 444.001 -143.498s162 -226.834 162 -393.501c0 -167.333 -53.833 -299 -161.5 -395s-255.834 -144 -444.501 -144c-189.333 0 -337.5 47.667 -444.5 143s-160.5 226.666 -160.5 393.999c0 168 53.667 299.833 161 395.5
s255.333 143.5 444 143.5zM535.003 1534h256l192 -371h-153l-166 199l-168 -199h-154z" />
    <glyph glyph-name="otilde" unicode="&#xf5;" horiz-adv-x="1325" 
d="M662 782c-36.667 0 -62.998 -20.5 -78.998 -61.5s-24 -109.833 -24 -206.5c0 -100.667 7.66699 -170.167 23 -208.5s42 -57.5 80 -57.5c37.333 0 63.666 19.167 78.999 57.5s23 107.833 23 208.5c0 99.333 -7.83301 168.833 -23.5 208.5s-41.834 59.5 -78.501 59.5z
M662.002 1053c188 0 336.001 -47.8311 444.001 -143.498s162 -226.834 162 -393.501c0 -167.333 -53.833 -299 -161.5 -395s-255.834 -144 -444.501 -144c-189.333 0 -337.5 47.667 -444.5 143s-160.5 226.666 -160.5 393.999c0 168 53.667 299.833 161 395.5
s255.333 143.5 444 143.5zM877.003 1489l119.001 0.000976562c-20 -88 -47.5 -152.333 -82.5 -193s-80.5 -61 -136.5 -61c-12.667 0 -25.167 1 -37.5 3s-25.166 5 -38.499 9l-92 27c-14.667 4 -27.667 7 -39 9s-21 3 -29 3c-22.667 0 -41.334 -6.33301 -56.001 -19
s-26 -32.334 -34 -59.001h-119c18.667 84 45.5 146 80.5 186s79.833 60 134.5 60c12.667 0 26.667 -1.16699 42 -3.5s31.333 -5.83301 48 -10.5l95 -29c8 -2.66699 16.667 -4.66699 26 -6s19.666 -2 30.999 -2c22 0 40.333 7.33301 55 22s25.667 36 33 64z" />
    <glyph glyph-name="odieresis" unicode="&#xf6;" horiz-adv-x="1325" 
d="M662 782c-36.667 0 -62.998 -20.5 -78.998 -61.5s-24 -109.833 -24 -206.5c0 -100.667 7.66699 -170.167 23 -208.5s42 -57.5 80 -57.5c37.333 0 63.666 19.167 78.999 57.5s23 107.833 23 208.5c0 99.333 -7.83301 168.833 -23.5 208.5s-41.834 59.5 -78.501 59.5z
M662.002 1053c188 0 336.001 -47.8311 444.001 -143.498s162 -226.834 162 -393.501c0 -167.333 -53.833 -299 -161.5 -395s-255.834 -144 -444.501 -144c-189.333 0 -337.5 47.667 -444.5 143s-160.5 226.666 -160.5 393.999c0 168 53.667 299.833 161 395.5
s255.333 143.5 444 143.5zM719.003 1483h252v-271h-252v271zM357.003 1483h250v-271h-250v271z" />
    <glyph glyph-name="divide" unicode="&#xf7;" horiz-adv-x="1706" 
d="M854 371c49.333 0 92 -17.999 128 -53.999s54 -79 54 -129c0 -49.333 -18 -92 -54 -128s-79.333 -54 -130 -54s-93.667 17.667 -129 53s-53 78.333 -53 129c0 51.333 17.833 94.666 53.5 129.999s79.167 53 130.5 53zM1452 748.001v-273h-1198v273h1198zM854 1217
c49.333 0 92 -18.333 128 -55s54 -80 54 -130c0 -49.333 -18 -92 -54 -128s-79.333 -54 -130 -54s-93.667 17.667 -129 53s-53 78.333 -53 129c0 51.333 18 95 54 131s79.333 54 130 54z" />
    <glyph glyph-name="oslash" unicode="&#xf8;" horiz-adv-x="1325" 
d="M229 109c-54.667 44 -96.9961 101.332 -126.996 171.999s-45 148.334 -45 233.001c0 168 53.667 299.833 161 395.5s255.333 143.5 444 143.5c45.333 0 90.666 -3.5 135.999 -10.5s90.666 -17.167 135.999 -30.5l141 180l148 -107l-131 -165
c56.667 -49.333 100.167 -108.5 130.5 -177.5s45.5 -144.5 45.5 -226.5c0 -167.333 -53.833 -299 -161.5 -395s-255.834 -144 -444.501 -144c-44.667 0 -89.334 3.16699 -134.001 9.5s-89 15.5 -133 27.5l-141 -188l-152 117zM565.004 513.999
c0 -102 7.5 -171.833 22.5 -209.5s41.167 -56.5 78.5 -56.5c38 0 64.833 19.5 80.5 58.5s23.5 108.167 23.5 207.5c0 98 -8 167.167 -24 207.5s-42.667 60.5 -80 60.5c-36 0 -61.833 -20.167 -77.5 -60.5s-23.5 -109.5 -23.5 -207.5z" />
    <glyph glyph-name="ugrave" unicode="&#xf9;" horiz-adv-x="1384" 
d="M119 1028l483 0.000976562v-635c0 -41.333 7.5 -71.833 22.5 -91.5s38.167 -29.5 69.5 -29.5c28 0 50 10.333 66 31s24 48.667 24 84v641h482v-887c0 -4 1 -21.833 3 -53.5s3.66699 -60.834 5 -87.501h-467v162c-40.667 -61.333 -90.667 -107.833 -150 -139.5
s-126 -47.5 -200 -47.5c-115.333 0 -200.5 33.333 -255.5 100s-82.5 170 -82.5 310v643zM387 1534h287l192 -371h-154z" />
    <glyph glyph-name="uacute" unicode="&#xfa;" horiz-adv-x="1384" 
d="M119 1028l483 0.000976562v-635c0 -41.333 7.5 -71.833 22.5 -91.5s38.167 -29.5 69.5 -29.5c28 0 50 10.333 66 31s24 48.667 24 84v641h482v-887c0 -4 1 -21.833 3 -53.5s3.66699 -60.834 5 -87.501h-467v162c-40.667 -61.333 -90.667 -107.833 -150 -139.5
s-126 -47.5 -200 -47.5c-115.333 0 -200.5 33.333 -255.5 100s-82.5 170 -82.5 310v643zM710 1534h287l-325 -371h-154z" />
    <glyph glyph-name="ucircumflex" unicode="&#xfb;" horiz-adv-x="1384" 
d="M119 1028l483 0.000976562v-635c0 -41.333 7.5 -71.833 22.5 -91.5s38.167 -29.5 69.5 -29.5c28 0 50 10.333 66 31s24 48.667 24 84v641h482v-887c0 -4 1 -21.833 3 -53.5s3.66699 -60.834 5 -87.501h-467v162c-40.667 -61.333 -90.667 -107.833 -150 -139.5
s-126 -47.5 -200 -47.5c-115.333 0 -200.5 33.333 -255.5 100s-82.5 170 -82.5 310v643zM563 1534h256l192 -371h-153l-166 199l-168 -199h-154z" />
    <glyph glyph-name="udieresis" unicode="&#xfc;" horiz-adv-x="1384" 
d="M119 1028l483 0.000976562v-635c0 -41.333 7.5 -71.833 22.5 -91.5s38.167 -29.5 69.5 -29.5c28 0 50 10.333 66 31s24 48.667 24 84v641h482v-887c0 -4 1 -21.833 3 -53.5s3.66699 -60.834 5 -87.501h-467v162c-40.667 -61.333 -90.667 -107.833 -150 -139.5
s-126 -47.5 -200 -47.5c-115.333 0 -200.5 33.333 -255.5 100s-82.5 170 -82.5 310v643zM747 1483h252v-271h-252v271zM385 1483h250v-271h-250v271z" />
    <glyph glyph-name="yacute" unicode="&#xfd;" horiz-adv-x="1319" 
d="M4 1028h524l140 -573l137 573h477l-473 -1417h-524l135 364zM677 1534h287l-325 -371h-154z" />
    <glyph glyph-name="thorn" unicode="&#xfe;" horiz-adv-x="1384" 
d="M137 -389l0.00195312 1864h494v-588c30 56.667 68.833 98.5 116.5 125.5s106.5 40.5 176.5 40.5c141.333 0 249.666 -46.667 324.999 -140s113 -227.666 113 -402.999c0 -169.333 -35.833 -300.833 -107.5 -394.5s-171.834 -140.5 -300.501 -140.5
c-72 0 -134.5 13.833 -187.5 41.5s-98.167 69.834 -135.5 126.501v-532h-494zM756.002 296.998c35.333 0 61.168 18.002 77.501 54.002s24.5 92.333 24.5 169c0 77.333 -8.33301 134.666 -25 171.999s-42.334 56 -77.001 56s-60.5 -18.833 -77.5 -56.5
s-25.5 -94.834 -25.5 -171.501s8.33301 -133 25 -169s42.667 -54 78 -54z" />
    <glyph glyph-name="ydieresis" unicode="&#xff;" horiz-adv-x="1319" 
d="M4 1028h524l140 -573l137 573h477l-473 -1417h-524l135 364zM714 1483h252v-271h-252v271zM352 1483h250v-271h-250v271z" />
    <glyph glyph-name="Cacute" unicode="&#x106;" horiz-adv-x="1554" 
d="M1485 540c-2 -189.333 -59.499 -330.499 -172.499 -423.499s-284.167 -139.5 -513.5 -139.5c-233.333 0 -413.833 66.167 -541.5 198.5s-191.5 318.833 -191.5 559.5c0 244 64.667 432.333 194 565s313.666 199 552.999 199c218 0 381.333 -48.167 490 -144.5
s163.667 -241.833 165 -436.5h-516v18c0 64 -10.833 110 -32.5 138s-57.167 42 -106.5 42c-58.667 0 -100 -26.667 -124 -80s-36 -152.333 -36 -297c0 -146.667 11.833 -246.834 35.5 -300.501s64.5 -80.5 122.5 -80.5c46 0 79.833 14.333 101.5 43s34.167 75 37.5 139h535z
M823.001 1956h287l-325 -371h-154z" />
    <glyph glyph-name="cacute" unicode="&#x107;" horiz-adv-x="1276" 
d="M1210 621l-448.003 0.000976562c-3.33301 63.333 -13.833 110.5 -31.5 141.5s-43.5 46.5 -77.5 46.5c-39.333 0 -67.166 -21.667 -83.499 -65s-24.5 -120 -24.5 -230c0 -111.333 8 -188 24 -230s44 -63 84 -63c36.667 0 63.334 15.667 80.001 47s26.334 84 29.001 158
h455c-8.66699 -159.333 -56.334 -274.333 -143.001 -345s-224 -106 -412 -106c-188.667 0 -336.667 48 -444 144s-161 227.667 -161 395s53.5 298.666 160.5 393.999s255.167 143 444.5 143c177.333 0 311.333 -35.5 402 -106.5s139.334 -178.833 146.001 -323.5z
M672.997 1534h287l-325 -371h-154z" />
    <glyph glyph-name="Ccaron" unicode="&#x10c;" horiz-adv-x="1554" 
d="M1485 540c-2 -189.333 -59.499 -330.499 -172.499 -423.499s-284.167 -139.5 -513.5 -139.5c-233.333 0 -413.833 66.167 -541.5 198.5s-191.5 318.833 -191.5 559.5c0 244 64.667 432.333 194 565s313.666 199 552.999 199c218 0 381.333 -48.167 490 -144.5
s163.667 -241.833 165 -436.5h-516v18c0 64 -10.833 110 -32.5 138s-57.167 42 -106.5 42c-58.667 0 -100 -26.667 -124 -80s-36 -152.333 -36 -297c0 -146.667 11.833 -246.834 35.5 -300.501s64.5 -80.5 122.5 -80.5c46 0 79.833 14.333 101.5 43s34.167 75 37.5 139h535z
M483.001 1956h154l168 -199l166 199h153l-192 -371h-256z" />
    <glyph glyph-name="ccaron" unicode="&#x10d;" horiz-adv-x="1276" 
d="M1210 621l-448.003 0.000976562c-3.33301 63.333 -13.833 110.5 -31.5 141.5s-43.5 46.5 -77.5 46.5c-39.333 0 -67.166 -21.667 -83.499 -65s-24.5 -120 -24.5 -230c0 -111.333 8 -188 24 -230s44 -63 84 -63c36.667 0 63.334 15.667 80.001 47s26.334 84 29.001 158
h455c-8.66699 -159.333 -56.334 -274.333 -143.001 -345s-224 -106 -412 -106c-188.667 0 -336.667 48 -444 144s-161 227.667 -161 395s53.5 298.666 160.5 393.999s255.167 143 444.5 143c177.333 0 311.333 -35.5 402 -106.5s139.334 -178.833 146.001 -323.5z
M332.997 1534h154l168 -199l166 199h153l-192 -371h-256z" />
    <glyph glyph-name="dcroat" unicode="&#x111;" horiz-adv-x="1389" 
d="M797 885l0.000976562 284h-224v164h224v142h471v-142h127v-164h-127v-1034c0 -5.33301 0.5 -19.333 1.5 -42s2.16699 -53.667 3.5 -93h-476v143c-32 -57.333 -71.5 -99.666 -118.5 -126.999s-104.5 -41 -172.5 -41c-142.667 0 -251.667 46.667 -327 140
s-113 227.666 -113 402.999c0 169.333 35.833 300.833 107.5 394.5s171.5 140.5 299.5 140.5c72 0 134.667 -14 188 -42s98.666 -70 135.999 -126zM776.001 508c0 76 -8.33301 132.167 -25 168.5s-42.334 54.5 -77.001 54.5c-36 0 -62.167 -17.833 -78.5 -53.5
s-24.5 -92.167 -24.5 -169.5s8.5 -134.5 25.5 -171.5s42.833 -55.5 77.5 -55.5s60.334 18.667 77.001 56s25 94.333 25 171z" />
    <glyph glyph-name="Gbreve" unicode="&#x11e;" horiz-adv-x="1655" 
d="M1575 78c-133.333 -34 -262.666 -59.666 -387.999 -76.999s-244.666 -26 -357.999 -26c-235.333 0 -421.333 69 -558 207s-205 325.667 -205 563c0 238 73 422.833 219 554.5s352 197.5 618 197.5c206 0 364.667 -41.833 476 -125.5s167 -202.834 167 -357.501v-8h-522
c-4 38 -19 67.5 -45 88.5s-60 31.5 -102 31.5c-80 0 -137 -31.667 -171 -95s-51 -171.333 -51 -324c0 -138.667 16.167 -236.167 48.5 -292.5s86.5 -84.5 162.5 -84.5c27.333 0 54.166 3.83301 80.499 11.5s52.166 19.5 77.499 35.5v168h-195v289h746v-756zM512 1923
h131.001c4 -47.333 20.833 -82.333 50.5 -105s74.167 -34 133.5 -34s104 11.5 134 34.5s46.333 57.833 49 104.5h130c-8 -106 -37.167 -183.667 -87.5 -233s-125.5 -74 -225.5 -74s-175.833 25.167 -227.5 75.5s-80.834 127.5 -87.501 231.5z" />
    <glyph glyph-name="gbreve" unicode="&#x11f;" horiz-adv-x="1380" 
d="M1262 164c0 -116 -8.50391 -204.666 -25.5039 -265.999s-45.5 -112.666 -85.5 -153.999c-48 -48.667 -114.167 -85.334 -198.5 -110.001s-186.166 -37 -305.499 -37c-177.333 0 -310.5 27.333 -399.5 82s-134.5 137 -136.5 247h468
c1.33301 -28 10.666 -49.333 27.999 -64s43 -22 77 -22c40.667 0 70.334 13.333 89.001 40s28 70 28 130v133c-29.333 -42.667 -68.666 -74.5 -117.999 -95.5s-109.666 -31.5 -180.999 -31.5c-137.333 0 -243.666 45.167 -318.999 135.5s-113 217.166 -113 380.499
c0 166 39 294.333 117 385s187.667 136 329 136c63.333 0 118 -10.833 164 -32.5s86.333 -55.167 121 -100.5v108h461v-864zM564.996 526.001c0 -76 9.16699 -132.167 27.5 -168.5s46.833 -54.5 85.5 -54.5s67.167 18.167 85.5 54.5s27.5 92.5 27.5 168.5
s-9.5 133 -28.5 171s-47.167 57 -84.5 57c-38.667 0 -67.167 -18.5 -85.5 -55.5s-27.5 -94.5 -27.5 -172.5zM374.996 1501h131.001c4 -47.333 20.833 -82.333 50.5 -105s74.167 -34 133.5 -34s104 11.5 134 34.5s46.333 57.833 49 104.5h130
c-8 -106 -37.167 -183.667 -87.5 -233s-125.5 -74 -225.5 -74s-175.833 25.167 -227.5 75.5s-80.834 127.5 -87.501 231.5z" />
    <glyph glyph-name="Idotaccent" unicode="&#x130;" horiz-adv-x="872" 
d="M721 1475v-1475h-569v1475h569zM307 1911h260v-281h-260v281z" />
    <glyph glyph-name="dotlessi" unicode="&#x131;" horiz-adv-x="768" 
d="M137 0v1028h494v-1028h-494z" />
    <glyph glyph-name="Lslash" unicode="&#x141;" horiz-adv-x="1290" 
d="M141 0v442l-145 -104v244l145 98v793h570v-472l268 187v-242l-268 -186v-369h536v-391h-1106z" />
    <glyph glyph-name="lslash" unicode="&#x142;" horiz-adv-x="768" 
d="M137 0v483l-141 -102v219l141 100v775h494v-508l141 98v-217l-141 -98v-750h-494z" />
    <glyph glyph-name="OE" unicode="&#x152;" horiz-adv-x="2163" 
d="M930 426l-0.000976562 633c-9.33301 17.333 -24.333 31.166 -45 41.499s-44 15.5 -70 15.5c-59.333 0 -101.166 -27 -125.499 -81s-36.5 -152.667 -36.5 -296c0 -145.333 12 -245.166 36 -299.499s65.333 -81.5 124 -81.5c27.333 0 50.833 5.83301 70.5 17.5
s35.167 28.5 46.5 50.5zM1049 0c-36.667 -7.33301 -75.333 -13 -116 -17s-85.334 -6 -134.001 -6c-233.333 0 -413.833 66.167 -541.5 198.5s-191.5 318.833 -191.5 559.5c0 246.667 65.5 435.667 196.5 567s319.833 197 566.5 197c39.333 0 76.833 -2 112.5 -6
s69.834 -10 102.501 -18h990v-379h-549v-160h508v-379h-508v-174h565v-383h-1001z" />
    <glyph glyph-name="oe" unicode="&#x153;" horiz-adv-x="1933" 
d="M1188 645l256 -0.000976562c0 4 0.333008 9 1 15s1 10.667 1 14c0 44.667 -11 79 -33 103s-53.333 36 -94 36c-41.333 0 -73.5 -13.667 -96.5 -41s-34.5 -65.666 -34.5 -114.999v-12zM985 943.999c47.333 36.667 100.5 64.002 159.5 82.002s125.167 27 198.5 27
c176 0 310.167 -43.333 402.5 -130s138.5 -212.667 138.5 -378c0 -16.667 -1 -47.334 -3 -92.001c-0.666992 -9.33301 -1 -16.333 -1 -21h-690v-29c0 -59.333 11.333 -104.5 34 -135.5s56.334 -46.5 101.001 -46.5c34.667 0 62.667 10.5 84 31.5s35.666 51.5 42.999 91.5
h409c-0.666992 -118.667 -47 -209.834 -139 -273.501s-224.333 -95.5 -397 -95.5c-76 0 -143.167 8.66699 -201.5 26s-106.5 43 -144.5 77c-35.333 -33.333 -81 -58.5 -137 -75.5s-122.333 -25.5 -199 -25.5c-179.333 0 -321.833 48.5 -427.5 145.5
s-158.5 227.5 -158.5 391.5c0 165.333 52.667 296.5 158 393.5s248 145.5 428 145.5c76 0 141.5 -8.83301 196.5 -26.5s103.5 -45.167 145.5 -82.5zM559 514.001c0 -100.667 7.66895 -170.167 23.002 -208.5s42 -57.5 80 -57.5c37.333 0 63.666 19.167 78.999 57.5
s23 107.833 23 208.5c0 99.333 -7.83301 168.833 -23.5 208.5s-41.834 59.5 -78.501 59.5s-63 -20.5 -79 -61.5s-24 -109.833 -24 -206.5z" />
    <glyph glyph-name="Scedilla" unicode="&#x15e;" horiz-adv-x="1493" 
d="M72 473l529.999 -0.000976562v-12c0 -50 11.5 -87.167 34.5 -111.5s58.5 -36.5 106.5 -36.5c42 0 74.833 9.5 98.5 28.5s35.5 45.167 35.5 78.5c0 24.667 -4.5 45.667 -13.5 63s-22.167 30.333 -39.5 39c-28.667 14 -87 32.333 -175 55s-157.667 42 -209 58
c-124 39.333 -214.333 91 -271 155s-85 145.333 -85 244c0 146.667 58.833 260.5 176.5 341.5s282.834 121.5 495.501 121.5c194 0 342.167 -34.833 444.5 -104.5s153.5 -169.834 153.5 -300.501v-31h-489c-4 44.667 -16.5 77.667 -37.5 99s-51.833 32 -92.5 32
c-35.333 0 -63.666 -9 -84.999 -27s-32 -41.667 -32 -71c0 -54 59.667 -95.333 179 -124c43.333 -10 78 -18.667 104 -26c199.333 -53.333 334.166 -113.166 404.499 -179.499s105.5 -158.166 105.5 -275.499c0 -158 -60.833 -283.167 -182.5 -375.5
s-287.5 -138.5 -497.5 -138.5c-212.667 0 -376 38.5 -490 115.5s-171 186.833 -171 329.5c0 14 0.166992 24.833 0.5 32.5s0.833008 14.5 1.5 20.5zM690.999 -0.000976562l114 0.000976562v-84h19c74 0 130.667 -16.5 170 -49.5s59 -80.5 59 -142.5
c0 -66.667 -22 -118.167 -66 -154.5s-106.667 -54.5 -188 -54.5c-38.667 0 -82 3.83301 -130 11.5s-101.667 19.5 -161 35.5v137c54 -14.667 104.333 -25.834 151 -33.501s86.667 -11.5 120 -11.5c28.667 0 50.167 5.83301 64.5 17.5s21.5 29.834 21.5 54.501
c0 21.333 -9.5 37.166 -28.5 47.499s-49.167 15.5 -90.5 15.5c-14 0 -25 -0.166992 -33 -0.5s-15.333 -0.833008 -22 -1.5v213z" />
    <glyph glyph-name="scedilla" unicode="&#x15f;" horiz-adv-x="1255" 
d="M84 327l438 1v-19c0 -36 9 -62.667 27 -80s45.333 -26 82 -26c32 0 57.333 7.5 76 22.5s28 35.5 28 61.5c0 28.667 -9.66699 50 -29 64s-58.666 25.333 -117.999 34c-184 28 -311.667 67 -383 117s-107 121.667 -107 215c0 107.333 47 190.166 141 248.499
s228 87.5 402 87.5c156.667 0 280.167 -27.667 370.5 -83s135.5 -130.333 135.5 -225c0 -2.66699 -0.333008 -7 -1 -13s-1 -10.333 -1 -13h-408v16c0 32.667 -8.33301 57.334 -25 74.001s-41.667 25 -75 25c-32 0 -56.667 -6.83301 -74 -20.5s-26 -32.834 -26 -57.501
c0 -45.333 42 -75 126 -89c10 -1.33301 18 -2.66602 24 -3.99902l148.5 -25c41.667 -7.33301 66.834 -12.333 75.501 -15c66 -22 111.5 -39.833 136.5 -53.5s45.167 -29.5 60.5 -47.5c21.333 -24.667 37.666 -53.5 48.999 -86.5s17 -69.5 17 -109.5
c0 -114 -45.833 -201 -137.5 -261s-224.834 -90 -399.501 -90c-188 0 -327.5 25 -418.5 75s-136.5 127 -136.5 231c0 12 0.166992 21.5 0.5 28.5s0.833008 12.833 1.5 17.5zM572 0l114 0.000976562v-84h19c74 0 130.667 -16.5 170 -49.5s59 -80.5 59 -142.5
c0 -66.667 -22 -118.167 -66 -154.5s-106.667 -54.5 -188 -54.5c-38.667 0 -82 3.83301 -130 11.5s-101.667 19.5 -161 35.5v137c54 -14.667 104.333 -25.834 151 -33.501s86.667 -11.5 120 -11.5c28.667 0 50.167 5.83301 64.5 17.5s21.5 29.834 21.5 54.501
c0 21.333 -9.5 37.166 -28.5 47.499s-49.167 15.5 -90.5 15.5c-14 0 -25 -0.166992 -33 -0.5s-15.333 -0.833008 -22 -1.5v213z" />
    <glyph glyph-name="Scaron" unicode="&#x160;" horiz-adv-x="1493" 
d="M72 473l529.999 -0.000976562v-12c0 -50 11.5 -87.167 34.5 -111.5s58.5 -36.5 106.5 -36.5c42 0 74.833 9.5 98.5 28.5s35.5 45.167 35.5 78.5c0 24.667 -4.5 45.667 -13.5 63s-22.167 30.333 -39.5 39c-28.667 14 -87 32.333 -175 55s-157.667 42 -209 58
c-124 39.333 -214.333 91 -271 155s-85 145.333 -85 244c0 146.667 58.833 260.5 176.5 341.5s282.834 121.5 495.501 121.5c194 0 342.167 -34.833 444.5 -104.5s153.5 -169.834 153.5 -300.501v-31h-489c-4 44.667 -16.5 77.667 -37.5 99s-51.833 32 -92.5 32
c-35.333 0 -63.666 -9 -84.999 -27s-32 -41.667 -32 -71c0 -54 59.667 -95.333 179 -124c43.333 -10 78 -18.667 104 -26c199.333 -53.333 334.166 -113.166 404.499 -179.499s105.5 -158.166 105.5 -275.499c0 -158 -60.833 -283.167 -182.5 -375.5
s-287.5 -138.5 -497.5 -138.5c-212.667 0 -376 38.5 -490 115.5s-171 186.833 -171 329.5c0 14 0.166992 24.833 0.5 32.5s0.833008 14.5 1.5 20.5zM425.999 1956h154l168 -199l166 199h153l-192 -371h-256z" />
    <glyph glyph-name="scaron" unicode="&#x161;" horiz-adv-x="1255" 
d="M84 327l438 1v-19c0 -36 9 -62.667 27 -80s45.333 -26 82 -26c32 0 57.333 7.5 76 22.5s28 35.5 28 61.5c0 28.667 -9.66699 50 -29 64s-58.666 25.333 -117.999 34c-184 28 -311.667 67 -383 117s-107 121.667 -107 215c0 107.333 47 190.166 141 248.499
s228 87.5 402 87.5c156.667 0 280.167 -27.667 370.5 -83s135.5 -130.333 135.5 -225c0 -2.66699 -0.333008 -7 -1 -13s-1 -10.333 -1 -13h-408v16c0 32.667 -8.33301 57.334 -25 74.001s-41.667 25 -75 25c-32 0 -56.667 -6.83301 -74 -20.5s-26 -32.834 -26 -57.501
c0 -45.333 42 -75 126 -89c10 -1.33301 18 -2.66602 24 -3.99902l148.5 -25c41.667 -7.33301 66.834 -12.333 75.501 -15c66 -22 111.5 -39.833 136.5 -53.5s45.167 -29.5 60.5 -47.5c21.333 -24.667 37.666 -53.5 48.999 -86.5s17 -69.5 17 -109.5
c0 -114 -45.833 -201 -137.5 -261s-224.834 -90 -399.501 -90c-188 0 -327.5 25 -418.5 75s-136.5 127 -136.5 231c0 12 0.166992 21.5 0.5 28.5s0.833008 12.833 1.5 17.5zM307 1534h154l168 -199l166 199h153l-192 -371h-256z" />
    <glyph glyph-name="Ydieresis" unicode="&#x178;" horiz-adv-x="1427" 
d="M436 510l-493 965h581l219 -598l197 598h543l-479 -965v-510h-568v510zM770 1905h252v-271h-252v271zM408 1905h250v-271h-250v271z" />
    <glyph glyph-name="Zcaron" unicode="&#x17d;" horiz-adv-x="1477" 
d="M84 0v352l618 742h-593v381h1249v-355l-606 -735h626v-385h-1294zM417 1956h154l168 -199l166 199h153l-192 -371h-256z" />
    <glyph glyph-name="zcaron" unicode="&#x17e;" horiz-adv-x="1110" 
d="M66 0v291l366 414h-336v323h914v-323l-330 -371h360v-334h-974zM233 1534h154l168 -199l166 199h153l-192 -371h-256z" />
    <glyph glyph-name="florin" unicode="&#x192;" horiz-adv-x="1442" 
d="M86 -2c26 -6 48.8311 -10.5039 68.498 -13.5039s35.834 -4.5 48.501 -4.5c39.333 0 69.5 10.833 90.5 32.5s36.5 58.5 46.5 110.5l70 379h-183v329h242l29 146c33.333 178.667 88 302.5 164 371.5s191.333 103.5 346 103.5c67.333 0 129.333 -3.66699 186 -11
s109.334 -18.666 158.001 -33.999l-43 -363c-25.333 6 -47.5 10.333 -66.5 13s-36.5 4 -52.5 4c-42 0 -73.5 -13.333 -94.5 -40s-36.5 -74 -46.5 -142l-7 -48h213v-329h-276l-57 -314c-26.667 -141.333 -50.167 -242.666 -70.5 -303.999s-44.166 -108.666 -71.499 -141.999
c-43.333 -54.667 -97 -94.667 -161 -120s-143.333 -38 -238 -38c-60 0 -118.833 4.33301 -176.5 13s-114.834 21.334 -171.501 38.001z" />
    <glyph glyph-name="circumflex" unicode="&#x2c6;" 
d="M383 1534h256l192 -371h-153l-166 199l-168 -199h-154z" />
    <glyph glyph-name="caron" unicode="&#x2c7;" 
d="M190 1534h154l168 -199l166 199h153l-192 -371h-256z" />
    <glyph glyph-name="breve" unicode="&#x2d8;" 
d="M197 1501h131.001c4 -47.333 20.833 -82.333 50.5 -105s74.167 -34 133.5 -34s104 11.5 134 34.5s46.333 57.833 49 104.5h130c-8 -106 -37.167 -183.667 -87.5 -233s-125.5 -74 -225.5 -74s-175.833 25.167 -227.5 75.5s-80.834 127.5 -87.501 231.5z" />
    <glyph glyph-name="dotaccent" unicode="&#x2d9;" 
d="M383 1489h260v-281h-260v281z" />
    <glyph glyph-name="ring" unicode="&#x2da;" 
d="M512 1530c-32 0 -59.167 -11.167 -81.5 -33.5s-33.5 -49.5 -33.5 -81.5s11 -59.167 33 -81.5s49.333 -33.5 82 -33.5c32 0 59.167 11.333 81.5 34s33.5 49.667 33.5 81c0 32 -11.167 59.167 -33.5 81.5s-49.5 33.5 -81.5 33.5zM512 1688
c75.333 0 139.501 -26.668 192.501 -80.001s79.5 -117.666 79.5 -192.999c0 -76 -26.167 -140 -78.5 -192s-116.833 -78 -193.5 -78c-76 0 -140 26 -192 78s-78 116 -78 192s26.167 140.5 78.5 193.5s116.166 79.5 191.499 79.5z" />
    <glyph glyph-name="ogonek" unicode="&#x2db;" 
d="M590 -276h102v-191h-74c-103.333 0 -176.833 15.333 -220.5 46s-65.5 81 -65.5 151c0 50.667 15.5 97.667 46.5 141s79.5 86.333 145.5 129h109c-42 -37.333 -72.333 -71.5 -91 -102.5s-28 -62.5 -28 -94.5c0 -27.333 6.16699 -47.333 18.5 -60s31.5 -19 57.5 -19z" />
    <glyph glyph-name="tilde" unicode="&#x2dc;" 
d="M725 1489l119.001 0.000976562c-20 -88 -47.5 -152.333 -82.5 -193s-80.5 -61 -136.5 -61c-12.667 0 -25.167 1 -37.5 3s-25.166 5 -38.499 9l-92 27c-14.667 4 -27.667 7 -39 9s-21 3 -29 3c-22.667 0 -41.334 -6.33301 -56.001 -19s-26 -32.334 -34 -59.001h-119
c18.667 84 45.5 146 80.5 186s79.833 60 134.5 60c12.667 0 26.667 -1.16699 42 -3.5s31.333 -5.83301 48 -10.5l95 -29c8 -2.66699 16.667 -4.66699 26 -6s19.666 -2 30.999 -2c22 0 40.333 7.33301 55 22s25.667 36 33 64z" />
    <glyph glyph-name="hungarumlaut" unicode="&#x2dd;" 
d="M725 1534h254l-291 -371h-119zM397 1534h246l-252 -371h-110z" />
    <glyph glyph-name="Omega" unicode="&#x3a9;" horiz-adv-x="1706" 
d="M1671 350l-0.000976562 -350.001h-661v403c44.667 54 78.334 112.833 101.001 176.5s34 131.167 34 202.5c0 110 -26.667 197.667 -80 263s-124.333 98 -213 98s-159.334 -32.667 -212.001 -98s-79 -153 -79 -263c0 -71.333 11.333 -138.833 34 -202.5
s56.334 -122.5 101.001 -176.5v-403h-661v350h371c-96 54.667 -167.833 124.5 -215.5 209.5s-71.5 185.167 -71.5 300.5c0 194 67.167 351 201.5 471s311.5 180 531.5 180s397.5 -60.167 532.5 -180.5s202.5 -277.166 202.5 -470.499
c0 -115.333 -23.833 -215.5 -71.5 -300.5s-119.5 -154.833 -215.5 -209.5h371z" />
    <glyph glyph-name="pi" unicode="&#x3c0;" horiz-adv-x="1716" 
d="M1661 846h-180l-119 -846h-418l119 846h-227l-119 -846h-418l119 846h-29c-21.333 0 -40.5 -12.333 -57.5 -37s-27.833 -56.667 -32.5 -96h-258c24 144 66.5 242.333 127.5 295s165.167 79 312.5 79h1221z" />
    <glyph glyph-name="endash" unicode="&#x2013;" 
d="M0 375v313h1024v-313h-1024z" />
    <glyph glyph-name="emdash" unicode="&#x2014;" horiz-adv-x="2048" 
d="M0 375v313h2048v-313h-2048z" />
    <glyph glyph-name="quoteleft" unicode="&#x2018;" horiz-adv-x="721" 
d="M659 1475l-98 -646h-475l180 646h393z" />
    <glyph glyph-name="quoteright" unicode="&#x2019;" horiz-adv-x="721" 
d="M104 829l99 646h475l-180 -646h-394z" />
    <glyph glyph-name="quotesinglbase" unicode="&#x201a;" horiz-adv-x="721" 
d="M27 -211l98 645h475l-180 -645h-393z" />
    <glyph glyph-name="quotedblleft" unicode="&#x201c;" horiz-adv-x="1413" 
d="M1352 1475l-99 -646h-475l180 646h394zM659 1475l-98 -646h-475l180 646h393z" />
    <glyph glyph-name="quotedblright" unicode="&#x201d;" horiz-adv-x="1413" 
d="M88 829l98 646h473l-178 -646h-393zM780 829l97 646h475l-178 -646h-394z" />
    <glyph glyph-name="quotedblbase" unicode="&#x201e;" horiz-adv-x="1413" 
d="M750 -211l96 645h475l-178 -645h-393zM57 -211l97 645h475l-178 -645h-394z" />
    <glyph glyph-name="dagger" unicode="&#x2020;" horiz-adv-x="1139" 
d="M397 854h-315v285h315v336h344v-336h316v-285h-316v-854h-344v854z" />
    <glyph glyph-name="daggerdbl" unicode="&#x2021;" horiz-adv-x="1139" 
d="M739 545h310v-281h-310v-264h-342v264h-307v281h307v397h-307v281h307v250h342v-250h310v-281h-310v-397z" />
    <glyph glyph-name="bullet" unicode="&#x2022;" horiz-adv-x="1208" 
d="M307 762c0 82 28.999 151.666 86.999 208.999s128 86 210 86c81.333 0 150.833 -28.833 208.5 -86.5s86.5 -127.167 86.5 -208.5s-29.167 -151.166 -87.5 -209.499s-128.166 -87.5 -209.499 -87.5c-82 0 -151.667 29 -209 87s-86 128 -86 210z" />
    <glyph glyph-name="ellipsis" unicode="&#x2026;" horiz-adv-x="2048" 
d="M107 0v434h475v-434h-475zM789 0v434h475v-434h-475zM1473 0v434h475v-434h-475z" />
    <glyph glyph-name="perthousand" unicode="&#x2030;" horiz-adv-x="3090" 
d="M2601 215c26.667 0 45.667 17.667 57 53s17 99 17 191c0 94.667 -5.66699 158.5 -17 191.5s-31 49.5 -59 49.5s-48 -16.167 -60 -48.5s-18 -89.833 -18 -172.5c0 -104 5.83301 -174 17.5 -210s32.5 -54 62.5 -54zM3006 457c0 -150.667 -36.167 -268.667 -108.5 -354
s-171.833 -128 -298.5 -128s-226.334 42.667 -299 128c-72.667 85.333 -109 203.333 -109 354c0 150 36.333 267.667 109 353s173 128 301 128c126.667 0 225.834 -42.5 297.5 -127.5c71.667 -85 107.5 -202.833 107.5 -353.5zM1698 215c27.333 0 46.835 18.167 58.502 54.5
s17.5 99.5 17.5 189.5c0 92.667 -5.83301 156 -17.5 190s-31.834 51 -60.501 51c-27.333 0 -46.833 -16.333 -58.5 -49s-17.5 -90 -17.5 -172c0 -106 5.66699 -176.5 17 -211.5s31.666 -52.5 60.999 -52.5zM2105 457c0 -150 -36.499 -267.833 -109.499 -353.5
s-172.833 -128.5 -299.5 -128.5s-226.334 42.667 -299.001 128s-109 203.333 -109 354s36.333 268.5 109 353.5s173 127.5 301 127.5c126.667 0 226.167 -42.667 298.5 -128s108.5 -203 108.5 -353zM580.003 0l792 1427h238l-793 -1427h-237zM901.003 969
c0 -150.667 -36.332 -269 -108.999 -355s-172 -129 -298 -129c-126.667 0 -226.334 43 -299.001 129s-109 204.333 -109 355s36.333 268.5 109 353.5s173 127.5 301 127.5c126 0 225 -42.5 297 -127.5s108 -202.833 108 -353.5zM496.004 723
c26.667 0 45.5 17.832 56.5 53.499s16.5 99.834 16.5 192.501c0 94.667 -5.5 158.5 -16.5 191.5s-30.5 49.5 -58.5 49.5s-48 -16.667 -60 -50s-18 -90.333 -18 -171c0 -104.667 5.83301 -175.167 17.5 -211.5s32.5 -54.5 62.5 -54.5z" />
    <glyph glyph-name="guilsinglleft" unicode="&#x2039;" horiz-adv-x="786" 
d="M354 0l-297 514l297 514h391l-217 -514l217 -514h-391z" />
    <glyph glyph-name="guilsinglright" unicode="&#x203a;" horiz-adv-x="786" 
d="M41 0l219 514l-219 514h393l297 -514l-297 -514h-393z" />
    <glyph glyph-name="franc" unicode="&#x20a3;" horiz-adv-x="2318" 
d="M1206 537h-508v-539h-557v1475h1121v-386h-564v-172h508v-378zM1931 918l54 50.999c36 36 65.5 59 88.5 69s49.833 15 80.5 15c22 0 42.667 -2.66699 62 -8s37.666 -13 55 -23v-385c-35.333 10.667 -68 18.834 -98 24.501s-56.667 8.5 -80 8.5
c-50 0 -86.333 -16.333 -109 -49s-34 -84.667 -34 -156v-465h-494v1028h475v-110z" />
    <glyph glyph-name="trademark" unicode="&#x2122;" horiz-adv-x="1706" 
d="M1044 1468l99 -266l98 266h256v-559h-182v367l-137 -367h-70l-137 367v-367h-183v559h256zM690 1468v-151h-162v-408h-202v408h-162v151h526z" />
    <glyph glyph-name="partialdiff" unicode="&#x2202;" horiz-adv-x="1139" 
d="M770 715c16.667 84.667 28.334 154.666 35.001 209.999s10 105.333 10 150c0 70 -8.83301 123 -26.5 159s-43.5 54 -77.5 54c-21.333 0 -40.333 -7 -57 -21s-34 -37.667 -52 -71c-29.333 -53.333 -59.833 -93 -91.5 -119s-65.167 -39 -100.5 -39
c-41.333 0 -75.666 12.5 -102.999 37.5s-41 56.833 -41 95.5c0 58 34.167 107.333 102.5 148s151.5 61 249.5 61c149.333 0 266.666 -54.167 351.999 -162.5s128 -258.166 128 -449.499c0 -232 -55.833 -421.833 -167.5 -569.5s-255.834 -221.5 -432.501 -221.5
c-143.333 0 -256 38.5 -338 115.5s-123 182.833 -123 317.5c0 136 42 249.5 126 340.5s186.667 136.5 308 136.5c64 0 121.333 -14.5 172 -43.5s93 -71.833 127 -128.5zM694 552.999c0 76 -11.334 133.501 -34.001 172.501s-55.667 58.5 -99 58.5
c-60 0 -110.167 -46.833 -150.5 -140.5s-60.5 -211.834 -60.5 -354.501c0 -76.667 11.333 -134.167 34 -172.5s56.334 -57.5 101.001 -57.5c60 0 109.833 46.667 149.5 140s59.5 211.333 59.5 354z" />
    <glyph glyph-name="Delta" unicode="&#x2206;" horiz-adv-x="1505" 
d="M958 309l-206 705l-207 -705h413zM991 1473l518 -1473h-1515l518 1473h479z" />
    <glyph glyph-name="product" unicode="&#x220f;" horiz-adv-x="1688" 
d="M139 1473h1399v-1866h-473v1474h-453v-1474h-473v1866z" />
    <glyph glyph-name="summation" unicode="&#x2211;" horiz-adv-x="1583" 
d="M80 1473h1368v-353h-778l559 -557l-541 -600h846v-356h-1475v200l664 738l-643 629v299z" />
    <glyph glyph-name="minus" unicode="&#x2212;" horiz-adv-x="1706" 
d="M1452 750v-277h-1198v277h1198z" />
    <glyph glyph-name="fraction" unicode="&#x2215;" horiz-adv-x="342" 
d="M-342 0l788 1427h236l-786 -1427h-238z" />
    <glyph glyph-name="periodcentered" unicode="&#x2219;" horiz-adv-x="721" 
d="M109 723c0 68.667 24.667 127.832 74 177.499s108.333 74.5 177 74.5c70 0 129.5 -24.5 178.5 -73.5s73.5 -108.5 73.5 -178.5s-24.5 -129.5 -73.5 -178.5s-108.5 -73.5 -178.5 -73.5c-68 0 -126.833 24.833 -176.5 74.5s-74.5 108.834 -74.5 177.501z" />
    <glyph glyph-name="radical" unicode="&#x221a;" horiz-adv-x="1395" 
d="M1399 1737v-172h-86l-588 -1606h-143l-301 827l-156 -59l-41 154l395 139l209 -600l483 1317h228z" />
    <glyph glyph-name="infinity" unicode="&#x221e;" horiz-adv-x="1706" 
d="M975 561c26.667 -38 58.333 -66.667 95 -86s78 -29 124 -29c56 0 101.667 14.333 137 43s53 65 53 109c0 43.333 -16 79.833 -48 109.5s-71 44.5 -117 44.5c-44 0 -84.833 -14.667 -122.5 -44s-78.167 -78.333 -121.5 -147zM730.999 653
c-27.333 38.667 -59.001 67.5 -95.001 86.5s-77.333 28.5 -124 28.5c-56 0 -101.333 -14.333 -136 -43s-52 -65.667 -52 -111c0 -42.667 15.833 -78.5 47.5 -107.5s70.834 -43.5 117.501 -43.5c44.667 0 85.667 14.667 123 44s77 78 119 146zM855.998 791
c46 85.333 95.667 148.833 149 190.5s111.666 62.5 174.999 62.5c95.333 0 176.833 -42 244.5 -126s101.5 -188 101.5 -312c0 -129.333 -30.167 -234.333 -90.5 -315s-138.166 -121 -233.499 -121c-58.667 0 -113.334 17.667 -164.001 53s-113.334 102.333 -188.001 201
c-44.667 -86 -93.5 -149.833 -146.5 -191.5s-111.5 -62.5 -175.5 -62.5c-96 0 -177.667 42 -245 126s-101 188 -101 312c0 130 29.833 235.167 89.5 315.5s137.167 120.5 232.5 120.5c56.667 0 110.334 -17.667 161.001 -53s114.334 -102 191.001 -200z" />
    <glyph glyph-name="integral" unicode="&#x222b;" horiz-adv-x="1331" 
d="M379 -244c18.667 0 36.668 14 54.001 42s31.333 66 42 114c12.667 61.333 21.334 189.666 26.001 384.999c2.66699 123.333 5.66699 221 9 293c15.333 343.333 63.333 590.666 144 741.999s203.334 227 368.001 227c78.667 0 142 -19.5 190 -58.5s72 -89.167 72 -150.5
c0 -46 -15.333 -83.5 -46 -112.5s-69.334 -43.5 -116.001 -43.5c-44.667 0 -78.334 13.5 -101.001 40.5s-34 66.833 -34 119.5c0 1.33301 0.333008 4.83301 1 10.5s1 10.834 1 15.501c0 17.333 -2.83301 30 -8.5 38s-14.5 12 -26.5 12
c-68.667 0 -110.667 -220.333 -126 -661l-3 -88c-7.33301 -222.667 -19.333 -384.167 -36 -484.5s-41.334 -189.166 -74.001 -266.499c-43.333 -100 -98.833 -175.5 -166.5 -226.5s-146.834 -76.5 -237.501 -76.5c-78.667 0 -141.667 19 -189 57s-71 88.667 -71 152
c0 48 15 86 45 114s70.333 42 121 42c41.333 0 73.5 -12.5 96.5 -37.5s34.5 -59.833 34.5 -104.5c0 -8 -0.333008 -18 -1 -30s-1 -19.667 -1 -23c0 -13.333 2.83301 -23.5 8.5 -30.5s13.834 -10.5 24.501 -10.5z" />
    <glyph glyph-name="approxequal" unicode="&#x2248;" horiz-adv-x="1706" 
d="M1530 309c-70.667 -46 -135.829 -79.667 -195.496 -101s-118.834 -32 -177.501 -32c-58 0 -151.333 21.5 -280 64.5s-234 64.5 -316 64.5c-54.667 0 -112.167 -12.333 -172.5 -37s-130.5 -65 -210.5 -121v299c76.667 49.333 147.667 85.333 213 108s131 34 197 34
c79.333 0 182.166 -21.5 308.499 -64.5s215.833 -64.5 268.5 -64.5c55.333 0 111.666 11.5 168.999 34.5s122.666 61.167 195.999 114.5v-299zM1530 774c-70.667 -46.667 -135.663 -80.5 -194.996 -101.5s-118 -31.5 -176 -31.5c-58.667 0 -152.334 21.5 -281.001 64.5
s-234.334 64.5 -317.001 64.5c-56 0 -113.667 -12 -173 -36s-129.333 -64 -210 -120v299c77.333 48.667 148.666 84.167 213.999 106.5s130.666 33.5 195.999 33.5c79.333 0 182.166 -21.167 308.499 -63.5s215.833 -63.5 268.5 -63.5c56.667 0 113.834 11.667 171.501 35
s122.167 61.333 193.5 114v-301z" />
    <glyph glyph-name="notequal" unicode="&#x2260;" horiz-adv-x="1706" 
d="M1384 1116l-112 -139h180v-260h-358l-172 -211h530v-262h-704l-242 -299l-199 159l113 140h-166v262h340l170 211h-510v260h690l244 301z" />
    <glyph glyph-name="lessequal" unicode="&#x2264;" horiz-adv-x="1706" 
d="M1454 236v-271h-1200v271h1200zM1452 999l-704 -208l704 -209v-281l-1198 371v237l1198 373v-283z" />
    <glyph glyph-name="greaterequal" unicode="&#x2265;" horiz-adv-x="1706" 
d="M1454 236v-271h-1200v271h1200zM1452 909v-237l-1196 -371v281l705 209l-705 208v283z" />
    <glyph glyph-name="lozenge" unicode="&#x25ca;" horiz-adv-x="1012" 
d="M506 1409l-385 -821l385 -821l385 821zM506 1653l500 -1065l-500 -1065l-500 1065z" />
    <glyph glyph-name="apple" unicode="&#xf000;" horiz-adv-x="1618" 
d="M836 1216c-0.666992 4 -1.16699 8.66895 -1.5 14.002s-0.5 13 -0.5 23c0 82.667 31.667 159.167 95 229.5s142 114.166 236 131.499c0.666992 -6.66699 1.16699 -14.334 1.5 -23.001s0.5 -21.667 0.5 -39c0 -87.333 -34.5 -165.5 -103.5 -234.5
s-136.833 -103.5 -203.5 -103.5h-8c-2 0 -4.5 0.333008 -7.5 1s-5.83301 1 -8.5 1zM1505 403.002c-76 -164.667 -144.335 -278.835 -205.002 -342.502s-128.667 -95.5 -204 -95.5c-33.333 0 -77.166 11 -131.499 33s-95.166 33 -122.499 33c-30 0 -73.667 -11 -131 -33
s-99.666 -33 -126.999 -33c-42.667 0 -85.5 14.667 -128.5 44s-86.167 73.333 -129.5 132c-68 93.333 -120.5 191.833 -157.5 295.5s-55.5 203.834 -55.5 300.501c0 146 41.667 264.833 125 356.5s191 137.5 323 137.5c45.333 0 97 -11.333 155 -34s99.333 -34 124 -34
c22.667 0 63.167 11.333 121.5 34s109.166 34 152.499 34c74 0 140.333 -13.167 199 -39.5s112 -67.166 160 -122.499c-68 -43.333 -118.5 -91.833 -151.5 -145.5s-49.5 -114.5 -49.5 -182.5c0 -75.333 20 -142 60 -200s97.667 -104 173 -138z" />
    <glyph glyph-name="fi" unicode="&#xf001;" horiz-adv-x="1579" 
d="M848 1477l0.000976562 -289c-8.66699 1.33301 -17.834 2.33301 -27.501 3s-23.167 1 -40.5 1c-42.667 0 -73.5 -8.33301 -92.5 -25s-28.5 -44 -28.5 -82v-75h185v-301h-185v-709h-473v709h-120v301h112v129c0 118.667 35.333 208.667 106 270s174 92 310 92
c34.667 0 73 -2 115 -6s88.333 -10 139 -18zM946.001 1165v310h494v-310h-494zM946.001 0v1028h494v-1028h-494z" />
    <glyph glyph-name="fl" unicode="&#xf002;" horiz-adv-x="1579" 
d="M186 0l0.000976562 709h-120v301h112v129c0 118.667 35.333 208.667 106 270s174 92 310 92c34.667 0 73 -2 115 -6s88.333 -10 139 -18v-289c-8.66699 1.33301 -17.834 2.33301 -27.501 3s-23.167 1 -40.5 1c-42.667 0 -73.5 -8.33301 -92.5 -25s-28.5 -44 -28.5 -82
v-75h185v-301h-185v-709h-473zM946.001 0v1475h494v-1475h-494z" />
    <glyph glyph-name=".null" horiz-adv-x="0" 
 />
    <glyph glyph-name="nonmarkingreturn" horiz-adv-x="721" 
 />
    </font>
</defs>
</svg>
